<svg id="Calque_1" data-name="Calque 1" xmlns="http://www.w3.org/2000/svg" viewBox="0 0 270.25 213.41"><defs><style>.cls-1{fill:#0e0e0e;}.cls-2{fill:#fefefe;}.cls-3{fill:#e1e1e1;}.cls-4{font-size:30px;fill:#231f20;font-family:BloomerDEMO-Regular, Bloomer DEMO;}.cls-5{letter-spacing:-0.04em;}.cls-6{letter-spacing:-0.02em;}.cls-7{letter-spacing:-0.01em;}.cls-8{letter-spacing:-0.02em;}.cls-9{letter-spacing:-0.02em;}.cls-10{letter-spacing:-0.02em;}</style></defs><title>Bulle</title><path class="cls-1" d="M163.54,208.41c2.49-3,4.75-5.73,7.06-8.43A39.54,39.54,0,0,0,180,178.11,33.67,33.67,0,0,0,177,160c-.25-.56-.45-.8-1.21-.67a200.74,200.74,0,0,1-40,2.82,192.05,192.05,0,0,1-23.72-2.08,177.86,177.86,0,0,1-28.76-6.81,138.75,138.75,0,0,1-26.22-11.65,90.59,90.59,0,0,1-22.57-18c-6.92-7.79-11.82-16.66-13.64-27A45.19,45.19,0,0,1,20.65,83c1.28-10.05,5.6-18.78,11.9-26.57A83.88,83.88,0,0,1,52.39,39,134.89,134.89,0,0,1,87.26,23.16a180.08,180.08,0,0,1,26.48-5.76A194.42,194.42,0,0,1,139,15.51a198,198,0,0,1,21.79.79,190.21,190.21,0,0,1,27.93,4.77,150.9,150.9,0,0,1,26.65,9.25c11.17,5.15,21.52,11.57,30.32,20.29a60.14,60.14,0,0,1,14.67,22.06,46.2,46.2,0,0,1,2.2,24c-1.67,9.85-6.25,18.25-12.6,25.78a83.65,83.65,0,0,1-17.84,15.63,2,2,0,0,0-1,1.71A61.25,61.25,0,0,1,220,171.91,78.1,78.1,0,0,1,202.36,190a99.93,99.93,0,0,1-30.6,15.75C169.11,206.54,166.48,207.44,163.54,208.41Zm12.12-8.09c.24-.06.52,0,.66-.28,1.75-.7,3.53-1.33,5.24-2.13a100.11,100.11,0,0,0,20-12.2,75,75,0,0,0,15.51-16.31A57.45,57.45,0,0,0,227.43,139a174.86,174.86,0,0,0,.2-19.56c-.07-1.13,0-2.27-.06-3.42,1.76,5.91,2.49,12,3.36,18,.35.11.53-.1.71-.22a87.52,87.52,0,0,0,10.94-9,64.74,64.74,0,0,0,9.73-12,45.23,45.23,0,0,0,7.07-21c.8-12.34-3.55-23-11.1-32.53a77.06,77.06,0,0,0-15.06-14.13,105.86,105.86,0,0,0-16.71-10,152.07,152.07,0,0,0-33.1-11.32,185.8,185.8,0,0,0-29.12-4.12,193.09,193.09,0,0,0-29.55.36A185.16,185.16,0,0,0,99.17,24,145.47,145.47,0,0,0,62.89,37.24C52.7,42.72,43.44,49.39,36,58.38a52,52,0,0,0-10.1,18.38,41.29,41.29,0,0,0-1.14,19.41,48.64,48.64,0,0,0,9,20.31,58.59,58.59,0,0,0,9.33,10.19c.33.34.63.71,1,1a96,96,0,0,0,16.24,11.39,145.17,145.17,0,0,0,41.09,15.16,192.56,192.56,0,0,0,35.81,4.18,197.94,197.94,0,0,0,22-.7c3.21-.29,6.43-.64,9.62-1.14,2.88-.44,5.77-.83,8.63-1.39.64-.13,1.25-.24,1.69.59a38.65,38.65,0,0,1,4.06,26.66,47,47,0,0,1-7.82,17.69c-.06.1-.3.17-.14.31S175.58,200.5,175.66,200.32Z"/><path class="cls-1" d="M10,95.11c.78,3.46,1.48,6.63,2.45,9.73a71.46,71.46,0,0,0,7.11,15.49,88.39,88.39,0,0,0,12.38,15.8A108.94,108.94,0,0,0,46,148.23a105.66,105.66,0,0,0,15.54,9.43,58.55,58.55,0,0,0,15.94,5.47v.11s0-.09,0-.09a25.24,25.24,0,0,1-9.23-1,75.06,75.06,0,0,1-24-10.91A85.47,85.47,0,0,1,21.25,129.1,60.69,60.69,0,0,1,10.19,101,34.33,34.33,0,0,1,10,95.11Z"/><path class="cls-1" d="M197.22,14.89a37.36,37.36,0,0,1,8.65.44,86.59,86.59,0,0,1,39.52,17,66.07,66.07,0,0,1,12.2,12.35,51,51,0,0,1,8.52,17.11,18.4,18.4,0,0,1-2-3.48c-5.7-9.85-13.51-17.71-22.73-24.25a122.15,122.15,0,0,0-38.46-17.94C201.11,15.66,199.25,15.34,197.22,14.89Z"/><path class="cls-1" d="M6.14,123a58.8,58.8,0,0,0,20.1,31.05A71.81,71.81,0,0,0,60,169.79a13.72,13.72,0,0,1-4.43.25c-10.93-.72-20.62-4.71-29.37-11.16a51.52,51.52,0,0,1-12.77-13.36,42.49,42.49,0,0,1-7.15-21C6.21,124.05,6.18,123.54,6.14,123Z"/><path class="cls-1" d="M262.92,37.75c-.66.27-.67-.39-.85-.66a68.68,68.68,0,0,0-9-11.11,59.32,59.32,0,0,0-22-13.52,77.18,77.18,0,0,0-15-3.55c-.39-.06-.76-.19-1.13-.28,0,0-.08,0-.1,0s0,.06,0,.19c1.18-1.1,2.64-.82,4-.88a44.93,44.93,0,0,1,27.46,7.7,41.6,41.6,0,0,1,13.06,13.79,27.13,27.13,0,0,1,3.2,7.31,2.5,2.5,0,0,0,.41,1Z"/><path class="cls-1" d="M262.89,37.75l0,.37s-.08,0-.08,0,0-.28.13-.34Z"/><path class="cls-2" d="M43.09,126.67a58.59,58.59,0,0,1-9.33-10.19,48.64,48.64,0,0,1-9-20.31,41.29,41.29,0,0,1,1.14-19.41A52,52,0,0,1,36,58.38c7.45-9,16.71-15.66,26.9-21.14A145.47,145.47,0,0,1,99.17,24,185.16,185.16,0,0,1,124.74,20a193.09,193.09,0,0,1,29.55-.36,185.8,185.8,0,0,1,29.12,4.12,152.07,152.07,0,0,1,33.1,11.32,105.86,105.86,0,0,1,16.71,10A77.06,77.06,0,0,1,248.28,59.2c7.55,9.51,11.9,20.19,11.1,32.53a45.23,45.23,0,0,1-7.07,21,64.74,64.74,0,0,1-9.73,12,87.52,87.52,0,0,1-10.94,9c-.18.12-.36.33-.71.22-.87-6-1.6-12.12-3.36-18,.07,1.15,0,2.29.06,3.42a174.86,174.86,0,0,1-.2,19.56,57.45,57.45,0,0,1-10.35,30.43,75,75,0,0,1-15.51,16.31,100.11,100.11,0,0,1-20,12.2c-1.71.8-3.49,1.43-5.24,2.13,0-.46.33-.69.6-1,1-1,2.09-2,3.09-3.1a63,63,0,0,0,8.28-11.4,60.46,60.46,0,0,0,5.42-12.52,63.67,63.67,0,0,0,2.09-8.7,55.92,55.92,0,0,0,.92-7.83,104.64,104.64,0,0,0-.44-13.71c-.28-2.4-.19-2.41-2.57-1.91-.35.08-11.79,2.08-12.35,2.16-3.07.45-6.14.89-9.22,1.2-4.41.46-8.84.88-13.26,1.18-3.89.26-7.8.46-11.69.47-4.74,0-9.47.08-14.22-.13-4-.18-7.94-.51-11.92-.58a54.13,54.13,0,0,1-5.52-.49c-3.16-.36-6.33-.66-9.46-1.18-1.84-.31-5.55-.73-5.83-.76-.66-.07-1.32-.14-2-.25-2.13-.36-4.28-.61-6.37-1.14-.9-.23-4.35-.86-5.18-1-1.93-.38-3.84-.83-5.76-1.25-4-.89-8-1.86-12-3-3.61-1.05-7.2-2.19-10.79-3.3-2-.61-4-1.29-5.91-2-2.26-.82-4.6-1.51-6.8-2.56C44.82,126.93,44.05,126.12,43.09,126.67Z"/><path class="cls-3" d="M43.09,126.67c1-.55,1.73.26,2.39.58,2.2,1.05,4.54,1.74,6.8,2.56,1.94.69,3.92,1.37,5.91,2,3.59,1.11,7.18,2.25,10.79,3.3,4,1.15,8,2.12,12,3,1.92.42,3.83.87,5.76,1.25.83.17,4.28.8,5.18,1,2.09.53,4.24.78,6.37,1.14.66.11,1.32.18,2,.25.28,0,4,.45,5.83.76,3.13.52,6.3.82,9.46,1.18a54.13,54.13,0,0,0,5.52.49c4,.07,8,.4,11.92.58,4.75.21,9.48.14,14.22.13,3.89,0,7.8-.21,11.69-.47,4.42-.3,8.85-.72,13.26-1.18,3.08-.31,6.15-.75,9.22-1.2.56-.08,12-2.08,12.35-2.16,2.38-.5,2.29-.49,2.57,1.91a104.64,104.64,0,0,1,.44,13.71,55.92,55.92,0,0,1-.92,7.83,63.67,63.67,0,0,1-2.09,8.7,60.46,60.46,0,0,1-5.42,12.52A63,63,0,0,1,180,196c-1,1.06-2.06,2.06-3.09,3.1-.27.28-.62.51-.6,1-.14.29-.42.22-.66.28l-.22-.19a47,47,0,0,0,7.82-17.69,38.65,38.65,0,0,0-4.06-26.66c-.44-.83-1-.72-1.69-.59-2.86.56-5.75.95-8.63,1.39-3.19.5-6.41.85-9.62,1.14a197.94,197.94,0,0,1-22,.7,192.56,192.56,0,0,1-35.81-4.18,145.17,145.17,0,0,1-41.09-15.16,96,96,0,0,1-16.24-11.39C43.72,127.38,43.42,127,43.09,126.67Z"/><path class="cls-3" d="M175.66,200.32c-.08.18-.25.22-.36.12s.08-.21.14-.31Z"/><path class="cls-3" d="M192,138.53l0-.1,0,.1Z"/></svg>