<?xml version="1.0" encoding="UTF-8" standalone="no"?>
<!-- Created with Inkscape (http://www.inkscape.org/) -->

<svg
   xmlns:dc="http://purl.org/dc/elements/1.1/"
   xmlns:cc="http://creativecommons.org/ns#"
   xmlns:rdf="http://www.w3.org/1999/02/22-rdf-syntax-ns#"
   xmlns:svg="http://www.w3.org/2000/svg"
   xmlns="http://www.w3.org/2000/svg"
   xmlns:sodipodi="http://sodipodi.sourceforge.net/DTD/sodipodi-0.dtd"
   xmlns:inkscape="http://www.inkscape.org/namespaces/inkscape"
   width="68.78373mm"
   height="53.055622mm"
   viewBox="0 0 68.78373 53.055622"
   version="1.1"
   id="svg8"
   inkscape:version="0.92.1 r15371"
   sodipodi:docname="Bulle Slide reversed.svg">
  <defs
     id="defs2">
    <style
       id="style4554">.cls-1{fill:#0e0e0e;}.cls-2{fill:#fefefe;}.cls-3{fill:#e1e1e1;}.cls-4{font-size:30px;fill:#231f20;font-family:BloomerDEMO-Regular, Bloomer DEMO;}.cls-5{letter-spacing:-0.04em;}.cls-6{letter-spacing:-0.02em;}.cls-7{letter-spacing:-0.01em;}.cls-8{letter-spacing:-0.02em;}.cls-9{letter-spacing:-0.02em;}.cls-10{letter-spacing:-0.02em;}</style>
  </defs>
  <sodipodi:namedview
     id="base"
     pagecolor="#ffffff"
     bordercolor="#666666"
     borderopacity="1.0"
     inkscape:pageopacity="0.0"
     inkscape:pageshadow="2"
     inkscape:zoom="2.8"
     inkscape:cx="47.833092"
     inkscape:cy="156.90989"
     inkscape:document-units="mm"
     inkscape:current-layer="layer1"
     showgrid="false"
     inkscape:window-width="1920"
     inkscape:window-height="1020"
     inkscape:window-x="0"
     inkscape:window-y="31"
     inkscape:window-maximized="1"
     fit-margin-top="0"
     fit-margin-left="0"
     fit-margin-right="0"
     fit-margin-bottom="0" />
  <metadata
     id="metadata5">
    <rdf:RDF>
      <cc:Work
         rdf:about="">
        <dc:format>image/svg+xml</dc:format>
        <dc:type
           rdf:resource="http://purl.org/dc/dcmitype/StillImage" />
        <dc:title></dc:title>
      </cc:Work>
    </rdf:RDF>
  </metadata>
  <g
     inkscape:label="Calque 1"
     inkscape:groupmode="layer"
     id="layer1"
     transform="translate(-0.09846405,-0.05176986)">
    <g
       id="g4596"
       transform="matrix(-0.26458333,0,0,0.26458333,70.506734,-2.0344189)">
      <path
         id="path4560"
         d="m 163.54,208.41 c 2.49,-3 4.75,-5.73 7.06,-8.43 A 39.54,39.54 0 0 0 180,178.11 33.67,33.67 0 0 0 177,160 c -0.25,-0.56 -0.45,-0.8 -1.21,-0.67 a 200.74,200.74 0 0 1 -40,2.82 192.05,192.05 0 0 1 -23.72,-2.08 177.86,177.86 0 0 1 -28.76,-6.81 138.75,138.75 0 0 1 -26.22,-11.65 90.59,90.59 0 0 1 -22.57,-18 C 27.6,115.82 22.7,106.95 20.88,96.61 A 45.19,45.19 0 0 1 20.65,83 c 1.28,-10.05 5.6,-18.78 11.9,-26.57 A 83.88,83.88 0 0 1 52.39,39 134.89,134.89 0 0 1 87.26,23.16 180.08,180.08 0 0 1 113.74,17.4 194.42,194.42 0 0 1 139,15.51 a 198,198 0 0 1 21.79,0.79 190.21,190.21 0 0 1 27.93,4.77 150.9,150.9 0 0 1 26.65,9.25 c 11.17,5.15 21.52,11.57 30.32,20.29 a 60.14,60.14 0 0 1 14.67,22.06 46.2,46.2 0 0 1 2.2,24 c -1.67,9.85 -6.25,18.25 -12.6,25.78 a 83.65,83.65 0 0 1 -17.84,15.63 2,2 0 0 0 -1,1.71 61.25,61.25 0 0 1 -11.12,32.12 78.1,78.1 0 0 1 -17.64,18.09 99.93,99.93 0 0 1 -30.6,15.75 c -2.65,0.79 -5.28,1.69 -8.22,2.66 z m 12.12,-8.09 c 0.24,-0.06 0.52,0 0.66,-0.28 1.75,-0.7 3.53,-1.33 5.24,-2.13 a 100.11,100.11 0 0 0 20,-12.2 75,75 0 0 0 15.51,-16.31 57.45,57.45 0 0 0 10.36,-30.4 174.86,174.86 0 0 0 0.2,-19.56 c -0.07,-1.13 0,-2.27 -0.06,-3.42 1.76,5.91 2.49,12 3.36,18 0.35,0.11 0.53,-0.1 0.71,-0.22 a 87.52,87.52 0 0 0 10.94,-9 64.74,64.74 0 0 0 9.73,-12 45.23,45.23 0 0 0 7.07,-21 c 0.8,-12.34 -3.55,-23 -11.1,-32.53 A 77.06,77.06 0 0 0 233.22,45.14 105.86,105.86 0 0 0 216.51,35.14 152.07,152.07 0 0 0 183.41,23.82 185.8,185.8 0 0 0 154.29,19.7 193.09,193.09 0 0 0 124.74,20.06 185.16,185.16 0 0 0 99.17,24 145.47,145.47 0 0 0 62.89,37.24 C 52.7,42.72 43.44,49.39 36,58.38 a 52,52 0 0 0 -10.1,18.38 41.29,41.29 0 0 0 -1.14,19.41 48.64,48.64 0 0 0 9,20.31 58.59,58.59 0 0 0 9.33,10.19 c 0.33,0.34 0.63,0.71 1,1 a 96,96 0 0 0 16.24,11.39 145.17,145.17 0 0 0 41.09,15.16 192.56,192.56 0 0 0 35.81,4.18 197.94,197.94 0 0 0 22,-0.7 c 3.21,-0.29 6.43,-0.64 9.62,-1.14 2.88,-0.44 5.77,-0.83 8.63,-1.39 0.64,-0.13 1.25,-0.24 1.69,0.59 a 38.65,38.65 0 0 1 4.06,26.66 47,47 0 0 1 -7.82,17.69 c -0.06,0.1 -0.3,0.17 -0.14,0.31 0.16,0.14 0.31,0.08 0.39,-0.1 z"
         class="cls-1"
         inkscape:connector-curvature="0"
         style="fill:#0e0e0e" />
      <path
         id="path4562"
         d="m 10,95.11 c 0.78,3.46 1.48,6.63 2.45,9.73 a 71.46,71.46 0 0 0 7.11,15.49 88.39,88.39 0 0 0 12.38,15.8 108.94,108.94 0 0 0 14.06,12.1 105.66,105.66 0 0 0 15.54,9.43 58.55,58.55 0 0 0 15.94,5.47 v 0.11 c 0,0 0,-0.09 0,-0.09 a 25.24,25.24 0 0 1 -9.23,-1 75.06,75.06 0 0 1 -24,-10.91 85.47,85.47 0 0 1 -23,-22.14 A 60.69,60.69 0 0 1 10.19,101 34.33,34.33 0 0 1 10,95.11 Z"
         class="cls-1"
         inkscape:connector-curvature="0"
         style="fill:#0e0e0e" />
      <path
         id="path4564"
         d="m 197.22,14.89 a 37.36,37.36 0 0 1 8.65,0.44 86.59,86.59 0 0 1 39.52,17 66.07,66.07 0 0 1 12.2,12.35 51,51 0 0 1 8.52,17.11 18.4,18.4 0 0 1 -2,-3.48 C 258.41,48.46 250.6,40.6 241.38,34.06 A 122.15,122.15 0 0 0 202.92,16.12 c -1.81,-0.46 -3.67,-0.78 -5.7,-1.23 z"
         class="cls-1"
         inkscape:connector-curvature="0"
         style="fill:#0e0e0e" />
      <path
         id="path4566"
         d="m 6.14,123 a 58.8,58.8 0 0 0 20.1,31.05 71.81,71.81 0 0 0 33.76,15.74 13.72,13.72 0 0 1 -4.43,0.25 C 44.64,169.32 34.95,165.33 26.2,158.88 a 51.52,51.52 0 0 1 -12.77,-13.36 42.49,42.49 0 0 1 -7.15,-21 C 6.21,124.05 6.18,123.54 6.14,123 Z"
         class="cls-1"
         inkscape:connector-curvature="0"
         style="fill:#0e0e0e" />
      <path
         id="path4568"
         d="m 262.92,37.75 c -0.66,0.27 -0.67,-0.39 -0.85,-0.66 a 68.68,68.68 0 0 0 -9,-11.11 59.32,59.32 0 0 0 -22,-13.52 77.18,77.18 0 0 0 -15,-3.55 c -0.39,-0.06 -0.76,-0.19 -1.13,-0.28 0,0 -0.08,0 -0.1,0 -0.02,0 0,0.06 0,0.19 1.18,-1.1 2.64,-0.82 4,-0.88 a 44.93,44.93 0 0 1 27.46,7.7 41.6,41.6 0 0 1 13.06,13.79 27.13,27.13 0 0 1 3.2,7.31 2.5,2.5 0 0 0 0.41,1 z"
         class="cls-1"
         inkscape:connector-curvature="0"
         style="fill:#0e0e0e" />
      <path
         id="path4570"
         d="m 262.89,37.75 v 0.37 c 0,0 -0.08,0 -0.08,0 0,0 0,-0.28 0.13,-0.34 z"
         class="cls-1"
         inkscape:connector-curvature="0"
         style="fill:#0e0e0e" />
      <path
         id="path4572"
         d="M 43.09,126.67 A 58.59,58.59 0 0 1 33.76,116.48 48.64,48.64 0 0 1 24.76,96.17 41.29,41.29 0 0 1 25.9,76.76 52,52 0 0 1 36,58.38 c 7.45,-9 16.71,-15.66 26.9,-21.14 A 145.47,145.47 0 0 1 99.17,24 a 185.16,185.16 0 0 1 25.57,-4 193.09,193.09 0 0 1 29.55,-0.36 185.8,185.8 0 0 1 29.12,4.12 152.07,152.07 0 0 1 33.1,11.32 105.86,105.86 0 0 1 16.71,10 77.06,77.06 0 0 1 15.06,14.12 c 7.55,9.51 11.9,20.19 11.1,32.53 a 45.23,45.23 0 0 1 -7.07,21 64.74,64.74 0 0 1 -9.73,12 87.52,87.52 0 0 1 -10.94,9 c -0.18,0.12 -0.36,0.33 -0.71,0.22 -0.87,-6 -1.6,-12.12 -3.36,-18 0.07,1.15 0,2.29 0.06,3.42 a 174.86,174.86 0 0 1 -0.2,19.56 57.45,57.45 0 0 1 -10.35,30.43 75,75 0 0 1 -15.51,16.31 100.11,100.11 0 0 1 -20,12.2 c -1.71,0.8 -3.49,1.43 -5.24,2.13 0,-0.46 0.33,-0.69 0.6,-1 1,-1 2.09,-2 3.09,-3.1 a 63,63 0 0 0 8.28,-11.4 60.46,60.46 0 0 0 5.42,-12.52 63.67,63.67 0 0 0 2.09,-8.7 55.92,55.92 0 0 0 0.92,-7.83 104.64,104.64 0 0 0 -0.44,-13.71 c -0.28,-2.4 -0.19,-2.41 -2.57,-1.91 -0.35,0.08 -11.79,2.08 -12.35,2.16 -3.07,0.45 -6.14,0.89 -9.22,1.2 -4.41,0.46 -8.84,0.88 -13.26,1.18 -3.89,0.26 -7.8,0.46 -11.69,0.47 -4.74,0 -9.47,0.08 -14.22,-0.13 -4,-0.18 -7.94,-0.51 -11.92,-0.58 a 54.13,54.13 0 0 1 -5.52,-0.49 c -3.16,-0.36 -6.33,-0.66 -9.46,-1.18 -1.84,-0.31 -5.55,-0.73 -5.83,-0.76 -0.66,-0.07 -1.32,-0.14 -2,-0.25 -2.13,-0.36 -4.28,-0.61 -6.37,-1.14 -0.9,-0.23 -4.35,-0.86 -5.18,-1 -1.93,-0.38 -3.84,-0.83 -5.76,-1.25 -4,-0.89 -8,-1.86 -12,-3 -3.61,-1.05 -7.2,-2.19 -10.79,-3.3 -2,-0.61 -4,-1.29 -5.91,-2 -2.26,-0.82 -4.6,-1.51 -6.8,-2.56 -0.62,-0.27 -1.39,-1.08 -2.35,-0.53 z"
         class="cls-2"
         inkscape:connector-curvature="0"
         style="fill:#fefefe" />
      <path
         id="path4574"
         d="m 43.09,126.67 c 1,-0.55 1.73,0.26 2.39,0.58 2.2,1.05 4.54,1.74 6.8,2.56 1.94,0.69 3.92,1.37 5.91,2 3.59,1.11 7.18,2.25 10.79,3.3 4,1.15 8,2.12 12,3 1.92,0.42 3.83,0.87 5.76,1.25 0.83,0.17 4.28,0.8 5.18,1 2.09,0.53 4.24,0.78 6.37,1.14 0.66,0.11 1.32,0.18 2,0.25 0.28,0 4,0.45 5.83,0.76 3.13,0.52 6.3,0.82 9.46,1.18 a 54.13,54.13 0 0 0 5.52,0.49 c 4,0.07 8,0.4 11.92,0.58 4.75,0.21 9.48,0.14 14.22,0.13 3.89,0 7.8,-0.21 11.69,-0.47 4.42,-0.3 8.85,-0.72 13.26,-1.18 3.08,-0.31 6.15,-0.75 9.22,-1.2 0.56,-0.08 12,-2.08 12.35,-2.16 2.38,-0.5 2.29,-0.49 2.57,1.91 a 104.64,104.64 0 0 1 0.44,13.71 55.92,55.92 0 0 1 -0.92,7.83 63.67,63.67 0 0 1 -2.09,8.7 60.46,60.46 0 0 1 -5.42,12.52 A 63,63 0 0 1 180,196 c -1,1.06 -2.06,2.06 -3.09,3.1 -0.27,0.28 -0.62,0.51 -0.6,1 -0.14,0.29 -0.42,0.22 -0.66,0.28 l -0.22,-0.19 a 47,47 0 0 0 7.82,-17.69 38.65,38.65 0 0 0 -4.06,-26.66 c -0.44,-0.83 -1,-0.72 -1.69,-0.59 -2.86,0.56 -5.75,0.95 -8.63,1.39 -3.19,0.5 -6.41,0.85 -9.62,1.14 a 197.94,197.94 0 0 1 -22,0.7 192.56,192.56 0 0 1 -35.81,-4.18 145.17,145.17 0 0 1 -41.09,-15.16 96,96 0 0 1 -16.24,-11.39 c -0.39,-0.37 -0.69,-0.75 -1.02,-1.08 z"
         class="cls-3"
         inkscape:connector-curvature="0"
         style="fill:#e1e1e1" />
      <path
         id="path4576"
         d="m 175.66,200.32 c -0.08,0.18 -0.25,0.22 -0.36,0.12 -0.11,-0.1 0.08,-0.21 0.14,-0.31 z"
         class="cls-3"
         inkscape:connector-curvature="0"
         style="fill:#e1e1e1" />
      <path
         id="path4578"
         d="m 192,138.53 v -0.1 z"
         class="cls-3"
         inkscape:connector-curvature="0"
         style="fill:#e1e1e1" />
    </g>
  </g>
</svg>
