<?xml version="1.0" encoding="UTF-8" standalone="no"?>
<!-- Generator: Adobe Illustrator 17.1.0, SVG Export Plug-In . SVG Version: 6.00 Build 0)  -->

<svg
   xmlns:dc="http://purl.org/dc/elements/1.1/"
   xmlns:cc="http://creativecommons.org/ns#"
   xmlns:rdf="http://www.w3.org/1999/02/22-rdf-syntax-ns#"
   xmlns:svg="http://www.w3.org/2000/svg"
   xmlns="http://www.w3.org/2000/svg"
   xmlns:sodipodi="http://sodipodi.sourceforge.net/DTD/sodipodi-0.dtd"
   xmlns:inkscape="http://www.inkscape.org/namespaces/inkscape"
   version="1.1"
   id="Layer_1"
   x="0px"
   y="0px"
   viewBox="0 0 323.29801 323.29799"
   enable-background="new 0 0 323.141 322.95"
   xml:space="preserve"
   sodipodi:docname="Elm_logo7.svg"
   width="323.298"
   height="323.298"
   inkscape:version="0.92.1 r15371"><metadata
     id="metadata7974"><rdf:RDF><cc:Work
         rdf:about=""><dc:format>image/svg+xml</dc:format><dc:type
           rdf:resource="http://purl.org/dc/dcmitype/StillImage" /><dc:title /></cc:Work></rdf:RDF></metadata><defs
     id="defs7972" /><sodipodi:namedview
     pagecolor="#ffffff"
     bordercolor="#666666"
     borderopacity="1"
     objecttolerance="10"
     gridtolerance="10"
     guidetolerance="10"
     inkscape:pageopacity="0"
     inkscape:pageshadow="2"
     inkscape:window-width="1920"
     inkscape:window-height="1020"
     id="namedview7970"
     showgrid="false"
     fit-margin-top="0"
     fit-margin-left="0"
     fit-margin-right="0"
     fit-margin-bottom="0"
     inkscape:zoom="2.0669106"
     inkscape:cx="-23.172102"
     inkscape:cy="181.68982"
     inkscape:window-x="0"
     inkscape:window-y="31"
     inkscape:window-maximized="1"
     inkscape:current-layer="Layer_1" /><polygon
     style="fill:#f0ad00"
     id="polygon7953"
     points="161.649,152.782 231.514,82.916 91.783,82.916 " /><polygon
     style="fill:#7fd13b"
     id="polygon7955"
     points="79.241,70.375 232.213,70.375 161.838,0 8.867,0 " /><rect
     style="fill:#7fd13b;stroke-width:0.9999904"
     id="rect7957"
     height="108.16596"
     width="107.67497"
     transform="rotate(45)"
     y="-114.43642"
     x="234.87299" /><polygon
     style="fill:#60b5cc"
     id="polygon7959"
     points="323.298,143.724 323.298,0 179.573,0 " /><polygon
     style="fill:#5a6378"
     id="polygon7961"
     points="152.781,161.649 0,8.868 0,314.432 " /><polygon
     style="fill:#f0ad00"
     id="polygon7963"
     points="255.522,246.655 323.298,314.432 323.298,178.879 " /><polygon
     style="fill:#60b5cc"
     id="polygon7965"
     points="161.649,170.517 8.869,323.298 314.43,323.298 " /><g
     aria-label="Functional
programming"
     style="font-style:normal;font-variant:normal;font-weight:normal;font-stretch:normal;font-size:26.66666603px;line-height:1.20000005;font-family:'Avenir Next LT Pro';-inkscape-font-specification:'Avenir Next LT Pro';text-align:center;letter-spacing:0px;word-spacing:0px;text-anchor:middle;fill:#fffeff;fill-opacity:1;stroke:none"
     id="text8528"><path
       d="m 122.74701,238.58749 h -5.70666 v 6.74667 h 5.30666 v 1.62666 h -5.30666 v 8.82667 h -1.84 v -18.88 h 7.54666 z"
       style="font-size:26.66666603px;line-height:1.20000005;fill:#fffeff;fill-opacity:1"
       id="path14545" /><path
       d="m 124.88285,242.56082 h 1.75999 v 8.53334 q 0,3.57333 2.08,3.57333 1.28,0 2.05334,-1.30667 0.77333,-1.30666 0.77333,-3.17333 v -7.62667 h 1.76 v 9.89334 q 0,2.26666 0.10667,3.33333 h -1.70667 q -0.10667,-1.33333 -0.10667,-2.58667 h -0.0533 q -0.37333,1.36 -1.25333,2.18667 -0.88,0.82667 -2.10667,0.82667 -1.01333,0 -1.70667,-0.42667 -0.69333,-0.45333 -1.03999,-1.22667 -0.32,-0.8 -0.45334,-1.6 -0.10666,-0.82666 -0.10666,-1.86666 z"
       style="font-size:26.66666603px;line-height:1.20000005;fill:#fffeff;fill-opacity:1"
       id="path14547" /><path
       d="m 146.02284,255.78749 h -1.76 v -8.53333 q 0,-3.57334 -2.08,-3.57334 -1.28,0 -2.05333,1.30667 -0.77333,1.30667 -0.77333,3.17333 v 7.62667 h -1.76 v -9.89333 q 0,-2.26667 -0.10667,-3.33334 h 1.70667 q 0.10666,1.33334 0.10666,2.58667 h 0.0533 q 0.37333,-1.36 1.25333,-2.18667 0.88,-0.82666 2.10667,-0.82666 1.01333,0 1.70666,0.45333 0.69334,0.42667 1.01334,1.22667 0.34666,0.77333 0.45333,1.6 0.13333,0.8 0.13333,1.84 z"
       style="font-size:26.66666603px;line-height:1.20000005;fill:#fffeff;fill-opacity:1"
       id="path14549" /><path
       d="m 156.68284,254.85416 q -1.06666,1.36 -2.93333,1.36 -2.21333,0 -3.38667,-1.92 -1.17333,-1.92 -1.17333,-5.12 0,-3.22667 1.2,-5.12 1.2,-1.92 3.38667,-1.92 1.84,0 2.88,1.25333 l -0.93334,1.28 q -0.69333,-0.98667 -1.92,-0.98667 -1.36,0 -2.08,1.52 -0.72,1.49334 -0.72,3.97334 0,2.48 0.72,3.94666 0.72,1.44 2.16,1.44 1.28,0 2,-1.06666 z"
       style="font-size:26.66666603px;line-height:1.20000005;fill:#fffeff;fill-opacity:1"
       id="path14551" /><path
       d="m 163.24118,255.78749 q -0.69334,0.34667 -1.6,0.34667 -2.53334,0 -2.53334,-3.52 v -8.61334 h -1.73333 v -1.44 h 1.70667 v -3.65333 h 1.73333 v 3.65333 h 2.34667 v 1.44 h -2.34667 v 8.29334 q 0,2.29333 1.38667,2.29333 0.48,0 0.96,-0.21333 z"
       style="font-size:26.66666603px;line-height:1.20000005;fill:#fffeff;fill-opacity:1"
       id="path14553" /><path
       d="m 167.66784,238.50749 q 0,0.56 -0.34666,0.93333 -0.34667,0.34667 -0.82667,0.34667 -0.50667,0 -0.85333,-0.34667 -0.32,-0.37333 -0.32,-0.93333 0,-0.53333 0.32,-0.90667 0.34666,-0.37333 0.85333,-0.37333 0.50667,0 0.82667,0.37333 0.34666,0.37334 0.34666,0.90667 z m -0.29333,17.28 h -1.76 v -13.22667 h 1.76 z"
       style="font-size:26.66666603px;line-height:1.20000005;fill:#fffeff;fill-opacity:1"
       id="path14555" /><path
       d="m 179.9266,249.20082 q 0,3.14667 -1.25334,5.09334 -1.22666,1.92 -3.36,1.92 -2.10666,0 -3.36,-1.92 -1.25333,-1.94667 -1.25333,-5.09334 0,-3.2 1.22667,-5.12 1.22666,-1.94666 3.38666,-1.94666 2.13334,0 3.36,1.94666 1.25334,1.92 1.25334,5.12 z m -2.53334,3.94667 q 0.72,-1.52 0.72,-3.97333 0,-2.45334 -0.72,-3.97334 -0.72,-1.54666 -2.08,-1.54666 -1.38666,0 -2.10666,1.54666 -0.69334,1.52 -0.69334,3.97334 0,2.45333 0.69334,3.97333 0.72,1.49333 2.10666,1.49333 1.38667,0 2.08,-1.49333 z"
       style="font-size:26.66666603px;line-height:1.20000005;fill:#fffeff;fill-opacity:1"
       id="path14557" /><path
       d="m 191.75201,255.78749 h -1.76 v -8.53333 q 0,-3.57334 -2.08,-3.57334 -1.28,0 -2.05333,1.30667 -0.77333,1.30667 -0.77333,3.17333 v 7.62667 h -1.76 v -9.89333 q 0,-2.26667 -0.10667,-3.33334 h 1.70667 q 0.10666,1.33334 0.10666,2.58667 h 0.0533 q 0.37333,-1.36 1.25333,-2.18667 0.88,-0.82666 2.10667,-0.82666 1.01333,0 1.70666,0.45333 0.69334,0.42667 1.01334,1.22667 0.34666,0.77333 0.45333,1.6 0.13333,0.8 0.13333,1.84 z"
       style="font-size:26.66666603px;line-height:1.20000005;fill:#fffeff;fill-opacity:1"
       id="path14559" /><path
       d="m 202.78535,255.78749 h -1.52 q -0.08,-0.85333 -0.08,-2.48 h -0.0533 q -0.66666,2.82667 -3.2,2.82667 -1.25333,0 -2.21333,-0.98667 -0.96,-0.98667 -0.96,-2.90667 0,-1.36 0.48,-2.29333 0.50667,-0.96 1.33333,-1.41333 0.82667,-0.48 1.65334,-0.66667 0.82666,-0.18667 1.76,-0.18667 h 1.04 v -0.69333 q 0,-1.68 -0.64,-2.50667 -0.61334,-0.82666 -1.73334,-0.82666 -1.46666,0 -2.48,1.41333 l -0.93333,-1.09333 q 0.58667,-0.85334 1.57333,-1.33334 0.98667,-0.50666 2,-0.50666 2.02667,0 2.93334,1.33333 0.90666,1.33333 0.90666,4 v 5.49333 q 0,1.44 0.13334,2.82667 z m -1.73334,-5.81333 v -0.90667 h -1.06666 q -3.54667,0 -3.54667,3.01333 0,1.28 0.56,1.94667 0.58667,0.66667 1.38667,0.66667 0.96,0 1.57333,-0.77334 0.64,-0.8 0.85333,-1.81333 0.24,-1.01333 0.24,-2.13333 z"
       style="font-size:26.66666603px;line-height:1.20000005;fill:#fffeff;fill-opacity:1"
       id="path14561" /><path
       d="m 208.20784,255.78749 h -1.76 v -20.16 h 1.76 z"
       style="font-size:26.66666603px;line-height:1.20000005;fill:#fffeff;fill-opacity:1"
       id="path14563" /><path
       d="m 107.65118,281.20082 q 0,3.17334 -1.09333,5.09334 -1.09334,1.92 -3.09334,1.92 -1.14666,0 -2,-0.72 -0.82666,-0.74667 -1.14666,-1.97334 h -0.0267 v 8.66667 h -1.760001 v -19.62666 h 1.706671 v 2.37333 h 0.0533 q 0.74667,-2.8 3.17333,-2.8 1.94667,0 3.06667,1.97333 1.12,1.94667 1.12,5.09333 z m -1.81333,-0.0533 q 0,-2.45333 -0.69334,-3.97333 -0.69333,-1.52 -2.08,-1.52 -1.36,0 -2.10666,1.54666 -0.72,1.52 -0.72,3.94667 0,2.42667 0.72,3.97333 0.74666,1.54667 2.10666,1.54667 1.38667,0 2.08,-1.52 0.69334,-1.52 0.69334,-4 z"
       style="font-size:26.66666603px;line-height:1.20000005;fill:#fffeff;fill-opacity:1"
       id="path14565" /><path
       d="m 112.79368,277.44082 q 0.34667,-1.65333 1.09333,-2.45333 0.77334,-0.82666 1.81334,-0.82666 0.21333,0 0.32,0.0267 l -0.0533,1.81333 q -0.26666,-0.0533 -0.42666,-0.0533 -1.25334,0 -2,1.54667 -0.74667,1.54666 -0.74667,3.54666 v 6.74667 h -1.76 v -9.89333 q 0,-2.26667 -0.10667,-3.33333 h 1.70667 q 0.10667,1.33333 0.10667,2.87999 z"
       style="font-size:26.66666603px;line-height:1.20000005;fill:#fffeff;fill-opacity:1"
       id="path14567" /><path
       d="m 126.4891,281.20082 q 0,3.14667 -1.25334,5.09334 -1.22666,1.92 -3.36,1.92 -2.10666,0 -3.36,-1.92 -1.25333,-1.94667 -1.25333,-5.09334 0,-3.2 1.22667,-5.12 1.22666,-1.94666 3.38666,-1.94666 2.13334,0 3.36,1.94666 1.25334,1.92 1.25334,5.12 z m -2.53334,3.94667 q 0.72,-1.52 0.72,-3.97333 0,-2.45334 -0.72,-3.97334 -0.72,-1.54666 -2.08,-1.54666 -1.38666,0 -2.10666,1.54666 -0.69334,1.52 -0.69334,3.97334 0,2.45333 0.69334,3.97333 0.72,1.49333 2.10666,1.49333 1.38667,0 2.08,-1.49333 z"
       style="font-size:26.66666603px;line-height:1.20000005;fill:#fffeff;fill-opacity:1"
       id="path14569" /><path
       d="m 138.10118,287.60082 q 0,6.58667 -4.69333,6.58667 -1.30667,0 -2.45334,-0.61333 -1.12,-0.58667 -1.81333,-1.6 l 1.14667,-1.22667 q 1.17333,1.84 3.17333,1.84 1.65333,0 2.29333,-1.30667 0.64,-1.28 0.64,-3.68 v -2.18666 h -0.0533 q -0.74667,2.8 -3.17333,2.8 -1.94667,0 -3.06667,-1.97334 -1.12,-1.97333 -1.12,-5.12 0,-3.17333 1.06667,-5.06666 1.09333,-1.92 3.09333,-1.92 1.17333,0 2.02667,0.72 0.85333,0.72 1.14666,1.94666 h 0.08 v -2.23999 h 1.70667 z m -2.45333,-2.45333 q 0.74666,-1.54667 0.74666,-3.97333 0,-2.42667 -0.74666,-3.97334 -0.72,-1.54666 -2.08,-1.54666 -1.38667,0 -2.08,1.52 -0.69334,1.52 -0.69334,4 0,2.45333 0.69334,3.97333 0.69333,1.52 2.08,1.52 1.36,0 2.08,-1.52 z"
       style="font-size:26.66666603px;line-height:1.20000005;fill:#fffeff;fill-opacity:1"
       id="path14571" /><path
       d="m 144.04368,277.44082 q 0.34666,-1.65333 1.09333,-2.45333 0.77333,-0.82666 1.81333,-0.82666 0.21334,0 0.32,0.0267 l -0.0533,1.81333 q -0.26667,-0.0533 -0.42667,-0.0533 -1.25333,0 -2,1.54667 -0.74666,1.54666 -0.74666,3.54666 v 6.74667 h -1.76 v -9.89333 q 0,-2.26667 -0.10667,-3.33333 h 1.70667 q 0.10666,1.33333 0.10666,2.87999 z"
       style="font-size:26.66666603px;line-height:1.20000005;fill:#fffeff;fill-opacity:1"
       id="path14573" /><path
       d="m 156.3791,287.78749 h -1.52 q -0.08,-0.85333 -0.08,-2.48 h -0.0533 q -0.66666,2.82667 -3.2,2.82667 -1.25333,0 -2.21333,-0.98667 -0.96,-0.98667 -0.96,-2.90667 0,-1.36 0.48,-2.29333 0.50667,-0.96 1.33333,-1.41333 0.82667,-0.48 1.65334,-0.66667 0.82666,-0.18667 1.76,-0.18667 h 1.04 v -0.69333 q 0,-1.68 -0.64,-2.50667 -0.61334,-0.82666 -1.73334,-0.82666 -1.46666,0 -2.48,1.41333 l -0.93333,-1.09333 q 0.58667,-0.85334 1.57333,-1.33333 0.98667,-0.50667 2,-0.50667 2.02667,0 2.93334,1.33333 0.90666,1.33333 0.90666,4 v 5.49333 q 0,1.44 0.13334,2.82667 z m -1.73334,-5.81333 v -0.90667 h -1.06666 q -3.54667,0 -3.54667,3.01333 0,1.28 0.56,1.94667 0.58667,0.66667 1.38667,0.66667 0.96,0 1.57333,-0.77334 0.64,-0.8 0.85333,-1.81333 0.24,-1.01333 0.24,-2.13333 z"
       style="font-size:26.66666603px;line-height:1.20000005;fill:#fffeff;fill-opacity:1"
       id="path14575" /><path
       d="m 161.90826,277.14749 q 0.32,-1.36 1.17333,-2.18667 0.85334,-0.82666 2.13334,-0.82666 2.48,0 2.98666,3.04 h 0.0533 q 0.34666,-1.28 1.25333,-2.16 0.90667,-0.88 2.24,-0.88 3.30667,0 3.30667,5.12 v 8.53333 h -1.78667 v -8.53333 q 0,-3.57334 -2.08,-3.57334 -1.25333,0 -2,1.30667 -0.74667,1.30667 -0.74667,3.17333 v 7.62667 h -1.76 v -8.53333 q 0,-0.72 -0.08,-1.25334 -0.0533,-0.56 -0.26666,-1.12 -0.18667,-0.58666 -0.61334,-0.88 -0.42666,-0.32 -1.06666,-0.32 -1.28,0 -2.02667,1.30667 -0.74667,1.30667 -0.74667,3.17333 v 7.62667 h -1.73333 v -9.89333 q 0,-2.26667 -0.10667,-3.33333 h 1.70667 q 0.10667,1.33333 0.10667,2.58666 z"
       style="font-size:26.66666603px;line-height:1.20000005;fill:#fffeff;fill-opacity:1"
       id="path14577" /><path
       d="m 180.91867,277.14749 q 0.32,-1.36 1.17334,-2.18667 0.85333,-0.82666 2.13333,-0.82666 2.48,0 2.98667,3.04 h 0.0533 q 0.34667,-1.28 1.25333,-2.16 0.90667,-0.88 2.24,-0.88 3.30667,0 3.30667,5.12 v 8.53333 h -1.78667 v -8.53333 q 0,-3.57334 -2.08,-3.57334 -1.25333,0 -2,1.30667 -0.74666,1.30667 -0.74666,3.17333 v 7.62667 h -1.76 v -8.53333 q 0,-0.72 -0.08,-1.25334 -0.0533,-0.56 -0.26667,-1.12 -0.18667,-0.58666 -0.61333,-0.88 -0.42667,-0.32 -1.06667,-0.32 -1.28,0 -2.02667,1.30667 -0.74666,1.30667 -0.74666,3.17333 v 7.62667 h -1.73334 v -9.89333 q 0,-2.26667 -0.10666,-3.33333 h 1.70666 q 0.10667,1.33333 0.10667,2.58666 z"
       style="font-size:26.66666603px;line-height:1.20000005;fill:#fffeff;fill-opacity:1"
       id="path14579" /><path
       d="m 200.11576,270.50749 q 0,0.56 -0.34666,0.93334 -0.34667,0.34666 -0.82667,0.34666 -0.50667,0 -0.85333,-0.34666 -0.32,-0.37334 -0.32,-0.93334 0,-0.53333 0.32,-0.90666 0.34666,-0.37334 0.85333,-0.37334 0.50667,0 0.82667,0.37334 0.34666,0.37333 0.34666,0.90666 z m -0.29333,17.28 h -1.76 v -13.22666 h 1.76 z"
       style="font-size:26.66666603px;line-height:1.20000005;fill:#fffeff;fill-opacity:1"
       id="path14581" /><path
       d="m 212.48118,287.78749 h -1.76 v -8.53333 q 0,-3.57334 -2.08,-3.57334 -1.28,0 -2.05334,1.30667 -0.77333,1.30667 -0.77333,3.17333 v 7.62667 h -1.76 v -9.89333 q 0,-2.26667 -0.10667,-3.33333 h 1.70667 q 0.10667,1.33333 0.10667,2.58666 h 0.0533 q 0.37333,-1.36 1.25333,-2.18667 0.88,-0.82666 2.10667,-0.82666 1.01333,0 1.70667,0.45333 0.69333,0.42667 1.01333,1.22667 0.34667,0.77333 0.45333,1.6 0.13334,0.8 0.13334,1.84 z"
       style="font-size:26.66666603px;line-height:1.20000005;fill:#fffeff;fill-opacity:1"
       id="path14583" /><path
       d="m 224.76784,287.60082 q 0,6.58667 -4.69333,6.58667 -1.30667,0 -2.45333,-0.61333 -1.12,-0.58667 -1.81334,-1.6 l 1.14667,-1.22667 q 1.17333,1.84 3.17333,1.84 1.65334,0 2.29334,-1.30667 0.64,-1.28 0.64,-3.68 v -2.18666 h -0.0533 q -0.74666,2.8 -3.17333,2.8 -1.94667,0 -3.06667,-1.97334 -1.12,-1.97333 -1.12,-5.12 0,-3.17333 1.06667,-5.06666 1.09333,-1.92 3.09333,-1.92 1.17334,0 2.02667,0.72 0.85333,0.72 1.14667,1.94666 h 0.08 v -2.23999 h 1.70666 z m -2.45333,-2.45333 q 0.74667,-1.54667 0.74667,-3.97333 0,-2.42667 -0.74667,-3.97334 -0.72,-1.54666 -2.08,-1.54666 -1.38667,0 -2.08,1.52 -0.69333,1.52 -0.69333,4 0,2.45333 0.69333,3.97333 0.69333,1.52 2.08,1.52 1.36,0 2.08,-1.52 z"
       style="font-size:26.66666603px;line-height:1.20000005;fill:#fffeff;fill-opacity:1"
       id="path14585" /></g><g
     aria-label="Tooling"
     transform="rotate(90)"
     style="font-style:normal;font-variant:normal;font-weight:normal;font-stretch:normal;font-size:26.66666603px;line-height:1.25;font-family:'Avenir Next LT Pro';-inkscape-font-specification:'Avenir Next LT Pro';letter-spacing:0px;word-spacing:0px;fill:#ffffff;fill-opacity:1;stroke:none"
     id="text8534"><path
       d="m 222.67217,-315.81 h -3.65333 v 17.28 h -1.84 v -17.28 h -3.62667 v -1.6 h 9.12 z"
       style=""
       id="path14530" /><path
       d="m 232.20925,-305.11667 q 0,3.14667 -1.25333,5.09334 -1.22667,1.92 -3.36,1.92 -2.10667,0 -3.36,-1.92 -1.25333,-1.94667 -1.25333,-5.09334 0,-3.2 1.22666,-5.12 1.22667,-1.94666 3.38667,-1.94666 2.13333,0 3.36,1.94666 1.25333,1.92 1.25333,5.12 z m -2.53333,3.94667 q 0.72,-1.52 0.72,-3.97333 0,-2.45334 -0.72,-3.97334 -0.72,-1.54666 -2.08,-1.54666 -1.38667,0 -2.10667,1.54666 -0.69333,1.52 -0.69333,3.97334 0,2.45333 0.69333,3.97333 0.72,1.49333 2.10667,1.49333 1.38667,0 2.08,-1.49333 z"
       style=""
       id="path14532" /><path
       d="m 243.928,-305.11667 q 0,3.14667 -1.25333,5.09334 -1.22667,1.92 -3.36,1.92 -2.10667,0 -3.36,-1.92 -1.25333,-1.94667 -1.25333,-5.09334 0,-3.2 1.22666,-5.12 1.22667,-1.94666 3.38667,-1.94666 2.13333,0 3.36,1.94666 1.25333,1.92 1.25333,5.12 z m -2.53333,3.94667 q 0.72,-1.52 0.72,-3.97333 0,-2.45334 -0.72,-3.97334 -0.72,-1.54666 -2.08,-1.54666 -1.38667,0 -2.10667,1.54666 -0.69333,1.52 -0.69333,3.97334 0,2.45333 0.69333,3.97333 0.72,1.49333 2.10667,1.49333 1.38667,0 2.08,-1.49333 z"
       style=""
       id="path14534" /><path
       d="m 248.98009,-298.53 h -1.76 v -20.16 h 1.76 z"
       style=""
       id="path14536" /><path
       d="m 255.10675,-315.81 q 0,0.56 -0.34667,0.93333 -0.34666,0.34667 -0.82666,0.34667 -0.50667,0 -0.85334,-0.34667 -0.32,-0.37333 -0.32,-0.93333 0,-0.53333 0.32,-0.90667 0.34667,-0.37333 0.85334,-0.37333 0.50666,0 0.82666,0.37333 0.34667,0.37334 0.34667,0.90667 z m -0.29333,17.28 h -1.76 v -13.22667 h 1.76 z"
       style=""
       id="path14538" /><path
       d="m 267.47217,-298.53 h -1.76 v -8.53333 q 0,-3.57334 -2.08,-3.57334 -1.28,0 -2.05333,1.30667 -0.77334,1.30667 -0.77334,3.17333 v 7.62667 h -1.76 v -9.89333 q 0,-2.26667 -0.10666,-3.33334 h 1.70666 q 0.10667,1.33334 0.10667,2.58667 h 0.0533 q 0.37334,-1.36 1.25334,-2.18667 0.88,-0.82666 2.10666,-0.82666 1.01333,0 1.70667,0.45333 0.69333,0.42667 1.01333,1.22667 0.34667,0.77333 0.45333,1.6 0.13334,0.8 0.13334,1.84 z"
       style=""
       id="path14540" /><path
       d="m 279.75883,-298.71667 q 0,6.58667 -4.69333,6.58667 -1.30666,0 -2.45333,-0.61333 -1.12,-0.58667 -1.81333,-1.6 l 1.14666,-1.22667 q 1.17334,1.84 3.17334,1.84 1.65333,0 2.29333,-1.30667 0.64,-1.28 0.64,-3.68 v -2.18666 h -0.0533 q -0.74666,2.8 -3.17333,2.8 -1.94666,0 -3.06666,-1.97334 -1.12,-1.97333 -1.12,-5.12 0,-3.17333 1.06666,-5.06666 1.09334,-1.92 3.09334,-1.92 1.17333,0 2.02666,0.72 0.85333,0.72 1.14667,1.94666 h 0.08 v -2.24 h 1.70666 z M 277.3055,-301.17 q 0.74667,-1.54667 0.74667,-3.97333 0,-2.42667 -0.74667,-3.97334 -0.72,-1.54666 -2.08,-1.54666 -1.38666,0 -2.08,1.52 -0.69333,1.52 -0.69333,4 0,2.45333 0.69333,3.97333 0.69334,1.52 2.08,1.52 1.36,0 2.08,-1.52 z"
       style=""
       id="path14542" /></g><g
     aria-label="Immutability"
     transform="rotate(-45)"
     style="font-style:normal;font-variant:normal;font-weight:normal;font-stretch:normal;font-size:40px;line-height:1.25;font-family:'Avenir Next LT Pro';-inkscape-font-specification:'Avenir Next LT Pro';letter-spacing:0px;word-spacing:0px;fill:#fffffb;fill-opacity:1;stroke:none"
     id="text8538"><path
       d="m -163.84653,213.67514 h -1.86667 v -18.88 h 1.86667 z"
       style="font-size:26.66666603px;fill:#fffffb;fill-opacity:1"
       id="path14613" /><path
       d="m -157.80737,203.03514 q 0.32,-1.36 1.17334,-2.18667 0.85333,-0.82666 2.13333,-0.82666 2.48,0 2.98667,3.04 h 0.0533 q 0.34667,-1.28 1.25333,-2.16 0.90667,-0.88 2.24,-0.88 3.30667,0 3.30667,5.12 v 8.53333 h -1.78667 v -8.53333 q 0,-3.57334 -2.08,-3.57334 -1.25333,0 -2,1.30667 -0.74666,1.30667 -0.74666,3.17333 v 7.62667 h -1.76 v -8.53333 q 0,-0.72 -0.08,-1.25334 -0.0533,-0.56 -0.26667,-1.12 -0.18667,-0.58666 -0.61333,-0.88 -0.42667,-0.32 -1.06667,-0.32 -1.28,0 -2.02667,1.30667 -0.74666,1.30667 -0.74666,3.17333 v 7.62667 h -1.73334 v -9.89333 q 0,-2.26667 -0.10666,-3.33334 h 1.70666 q 0.10667,1.33334 0.10667,2.58667 z"
       style="font-size:26.66666603px;fill:#fffffb;fill-opacity:1"
       id="path14615" /><path
       d="m -138.79695,203.03514 q 0.32,-1.36 1.17333,-2.18667 0.85334,-0.82666 2.13334,-0.82666 2.48,0 2.98666,3.04 h 0.0533 q 0.34666,-1.28 1.25333,-2.16 0.90667,-0.88 2.24,-0.88 3.30667,0 3.30667,5.12 v 8.53333 h -1.78667 v -8.53333 q 0,-3.57334 -2.08,-3.57334 -1.25333,0 -2,1.30667 -0.74667,1.30667 -0.74667,3.17333 v 7.62667 h -1.76 v -8.53333 q 0,-0.72 -0.08,-1.25334 -0.0533,-0.56 -0.26666,-1.12 -0.18667,-0.58666 -0.61334,-0.88 -0.42666,-0.32 -1.06666,-0.32 -1.28,0 -2.02667,1.30667 -0.74667,1.30667 -0.74667,3.17333 v 7.62667 h -1.73333 v -9.89333 q 0,-2.26667 -0.10667,-3.33334 h 1.70667 q 0.10667,1.33334 0.10667,2.58667 z"
       style="font-size:26.66666603px;fill:#fffffb;fill-opacity:1"
       id="path14617" /><path
       d="m -121.75987,200.44847 h 1.76 v 8.53334 q 0,3.57333 2.08,3.57333 1.28,0 2.05333,-1.30667 0.77334,-1.30666 0.77334,-3.17333 v -7.62667 h 1.76 v 9.89334 q 0,2.26666 0.10666,3.33333 h -1.70666 q -0.10667,-1.33333 -0.10667,-2.58667 h -0.0533 q -0.37334,1.36 -1.25334,2.18667 -0.88,0.82667 -2.10666,0.82667 -1.01334,0 -1.70667,-0.42667 -0.69333,-0.45333 -1.04,-1.22667 -0.32,-0.8 -0.45333,-1.6 -0.10667,-0.82666 -0.10667,-1.86666 z"
       style="font-size:26.66666603px;fill:#fffffb;fill-opacity:1"
       id="path14619" /><path
       d="m -104.85987,213.67514 q -0.69333,0.34667 -1.6,0.34667 -2.53333,0 -2.53333,-3.52 v -8.61334 h -1.73334 v -1.44 h 1.70667 v -3.65333 h 1.73333 v 3.65333 h 2.34667 v 1.44 h -2.34667 v 8.29334 q 0,2.29333 1.38667,2.29333 0.48,0 0.96,-0.21333 z"
       style="font-size:26.66666603px;fill:#fffffb;fill-opacity:1"
       id="path14621" /><path
       d="m -95.419868,213.67514 h -1.52 q -0.08,-0.85333 -0.08,-2.48 h -0.05333 q -0.666667,2.82667 -3.199999,2.82667 -1.25333,0 -2.21333,-0.98667 -0.96,-0.98667 -0.96,-2.90667 0,-1.36 0.48,-2.29333 0.50666,-0.96 1.33333,-1.41333 0.82667,-0.48 1.653332,-0.66667 0.826667,-0.18667 1.76,-0.18667 h 1.04 v -0.69333 q 0,-1.68 -0.64,-2.50667 -0.613333,-0.82666 -1.733333,-0.82666 -1.466669,0 -2.479999,1.41333 l -0.93333,-1.09333 q 0.58666,-0.85334 1.57333,-1.33334 0.98667,-0.50666 1.999999,-0.50666 2.026667,0 2.933333,1.33333 0.906667,1.33333 0.906667,4 v 5.49333 q 0,1.44 0.133333,2.82667 z m -1.733333,-5.81333 v -0.90667 h -1.066667 q -3.546662,0 -3.546662,3.01333 0,1.28 0.56,1.94667 0.58666,0.66667 1.386662,0.66667 0.96,0 1.573334,-0.77334 0.64,-0.8 0.853333,-1.81333 0.24,-1.01333 0.24,-2.13333 z"
       style="font-size:26.66666603px;fill:#fffffb;fill-opacity:1"
       id="path14623" /><path
       d="m -83.7307,201.94181 q 1.093334,1.89333 1.093334,5.06666 0,3.17334 -1.12,5.14667 -1.093334,1.94667 -3.066667,1.94667 -2.426667,0 -3.173333,-2.8 h -0.05333 v 2.37333 h -1.706666 v -20.16 h 1.76 v 9.2 h 0.02667 q 0.32,-1.22667 1.146667,-1.94667 0.826667,-0.74666 2,-0.74666 2,0 3.093333,1.92 z m -1.413333,9.09333 q 0.693333,-1.52 0.693333,-3.97333 0,-2.45334 -0.693333,-3.97334 -0.693333,-1.54666 -2.08,-1.54666 -1.36,0 -2.106667,1.54666 -0.72,1.54667 -0.72,3.97334 0,2.42666 0.72,3.97333 0.746667,1.52 2.106667,1.52 1.386667,0 2.08,-1.52 z"
       style="font-size:26.66666603px;fill:#fffffb;fill-opacity:1"
       id="path14625" /><path
       d="m -77.308205,196.39514 q 0,0.56 -0.346666,0.93333 -0.346667,0.34667 -0.826667,0.34667 -0.506667,0 -0.853333,-0.34667 -0.32,-0.37333 -0.32,-0.93333 0,-0.53333 0.32,-0.90667 0.346666,-0.37333 0.853333,-0.37333 0.506667,0 0.826667,0.37333 0.346666,0.37334 0.346666,0.90667 z m -0.293333,17.28 h -1.76 v -13.22667 h 1.76 z"
       style="font-size:26.66666603px;fill:#fffffb;fill-opacity:1"
       id="path14627" /><path
       d="m -71.716116,213.67514 h -1.76 v -20.16 h 1.76 z"
       style="font-size:26.66666603px;fill:#fffffb;fill-opacity:1"
       id="path14629" /><path
       d="m -65.589455,196.39514 q 0,0.56 -0.346666,0.93333 -0.346667,0.34667 -0.826667,0.34667 -0.506667,0 -0.853333,-0.34667 -0.32,-0.37333 -0.32,-0.93333 0,-0.53333 0.32,-0.90667 0.346666,-0.37333 0.853333,-0.37333 0.506667,0 0.826667,0.37333 0.346666,0.37334 0.346666,0.90667 z m -0.293333,17.28 h -1.76 v -13.22667 h 1.76 z"
       style="font-size:26.66666603px;fill:#fffffb;fill-opacity:1"
       id="path14631" /><path
       d="m -57.464033,213.67514 q -0.693333,0.34667 -1.6,0.34667 -2.533333,0 -2.533333,-3.52 v -8.61334 h -1.733333 v -1.44 h 1.706666 v -3.65333 h 1.733333 v 3.65333 h 2.346667 v 1.44 H -59.8907 v 8.29334 q 0,2.29333 1.386667,2.29333 0.48,0 0.96,-0.21333 z"
       style="font-size:26.66666603px;fill:#fffffb;fill-opacity:1"
       id="path14633" /><path
       d="m -47.597369,200.44847 -4.16,16.02667 q -0.48,1.81333 -1.253333,2.69333 -0.746667,0.90667 -2.08,0.90667 -0.72,0 -1.36,-0.21333 l 0.24,-1.57334 q 0.48,0.16 0.986667,0.16 0.72,0 1.12,-0.50666 0.4,-0.50667 0.666666,-1.49334 l 0.586667,-2.29333 -3.84,-13.70667 h 1.866667 l 2.853333,11.17334 h 0.05333 l 2.533333,-11.17334 z"
       style="font-size:26.66666603px;fill:#fffffb;fill-opacity:1"
       id="path14635" /></g><g
     aria-label="Types
"
     style="font-style:normal;font-variant:normal;font-weight:normal;font-stretch:normal;font-size:40px;line-height:1.25;font-family:'Avenir Next LT Pro';-inkscape-font-specification:'Avenir Next LT Pro';letter-spacing:0px;word-spacing:0px;fill:#fffffb;fill-opacity:1;stroke:none"
     id="text8538-3"><path
       d="M 145.76433,95.133582 H 142.111 v 17.279998 h -1.84 V 95.133582 h -3.62667 v -1.6 h 9.12 z"
       style="font-size:26.66666603px;fill:#fffffb;fill-opacity:1"
       id="path14638" /><path
       d="m 154.36808,99.186915 -4.16,16.026665 q -0.48,1.81334 -1.25333,2.69334 -0.74667,0.90666 -2.08,0.90666 -0.72,0 -1.36,-0.21333 l 0.24,-1.57333 q 0.48,0.16 0.98667,0.16 0.72,0 1.12,-0.50667 0.4,-0.50667 0.66666,-1.49333 l 0.58667,-2.29334 -3.84,-13.706665 h 1.86667 l 2.85333,11.173335 h 0.0533 l 2.53334,-11.173335 z"
       style="font-size:26.66666603px;fill:#fffffb;fill-opacity:1"
       id="path14640" /><path
       d="m 165.99475,105.82692 q 0,3.17333 -1.09334,5.09333 -1.09333,1.92 -3.09333,1.92 -1.14667,0 -2,-0.72 -0.82667,-0.74667 -1.14667,-1.97333 h -0.0267 v 8.66666 h -1.76 V 99.186915 h 1.70666 v 2.373335 h 0.0533 q 0.74666,-2.800001 3.17333,-2.800001 1.94667,0 3.06667,1.973331 1.12,1.94667 1.12,5.09334 z m -1.81334,-0.0533 q 0,-2.45333 -0.69333,-3.97333 -0.69333,-1.52 -2.08,-1.52 -1.36,0 -2.10667,1.54667 -0.72,1.52 -0.72,3.94666 0,2.42667 0.72,3.97334 0.74667,1.54666 2.10667,1.54666 1.38667,0 2.08,-1.52 0.69333,-1.52 0.69333,-4 z"
       style="font-size:26.66666603px;fill:#fffffb;fill-opacity:1"
       id="path14642" /><path
       d="m 177.37725,106.17358 h -7.12 q 0.0267,2.29334 0.77333,3.68 0.74667,1.38667 2.16,1.38667 1.68,0 2.45334,-2 l 1.33333,0.77333 q -1.12,2.82667 -3.84,2.82667 -2.18667,0 -3.44,-1.86667 -1.22667,-1.86666 -1.22667,-5.14666 0,-3.14667 1.25334,-5.09334 1.28,-1.973331 3.38666,-1.973331 2.21334,0 3.22667,1.786671 1.04,1.78666 1.04,4.66666 z m -1.78667,-1.46666 q 0,-2.05334 -0.64,-3.22667 -0.64,-1.2 -1.89333,-1.2 -0.93333,0 -1.6,0.82667 -0.66667,0.8 -0.93333,1.76 -0.24,0.93333 -0.24,1.84 z"
       style="font-size:26.66666603px;fill:#fffffb;fill-opacity:1"
       id="path14644" /><path
       d="m 186.65267,100.33358 -1.04,1.14667 q -0.77334,-1.30667 -2.21334,-1.30667 -0.85333,0 -1.41333,0.64 -0.53333,0.64 -0.53333,1.62667 0,0.98667 0.48,1.49333 0.50666,0.50667 1.65333,0.93334 2.96,1.14666 2.96,3.86666 0,1.92 -1.06667,3.01334 -1.04,1.09333 -2.72,1.09333 -2.29333,0 -3.6,-1.92 l 1.06667,-1.14667 q 1.01333,1.57334 2.56,1.57334 0.93333,0 1.49333,-0.66667 0.58667,-0.69333 0.58667,-1.81333 0,-0.61334 -0.18667,-1.06667 -0.18666,-0.45333 -0.61333,-0.77333 -0.42667,-0.32 -0.74667,-0.45334 -0.29333,-0.16 -0.93333,-0.42666 -1.22667,-0.45334 -1.94667,-1.25334 -0.69333,-0.82666 -0.69333,-2.37333 0,-1.62667 1.04,-2.693335 1.06667,-1.066666 2.61333,-1.066666 2.13334,0 3.25334,1.573331 z"
       style="font-size:26.66666603px;fill:#fffffb;fill-opacity:1"
       id="path14646" /></g><g
     aria-label="Easy
learning"
     style="font-style:normal;font-variant:normal;font-weight:normal;font-stretch:normal;font-size:40px;line-height:0.89999998;font-family:'Avenir Next LT Pro';-inkscape-font-specification:'Avenir Next LT Pro';text-align:center;letter-spacing:0px;word-spacing:0px;text-anchor:middle;fill:#fffffb;fill-opacity:1;stroke:none"
     id="text8538-3-7"><path
       d="m 236.36796,149.71281 h -7.86667 v -18.88 h 7.6 v 1.65334 h -5.78666 v 6.64 h 5.41333 v 1.57333 h -5.41333 v 7.33333 h 6.05333 z"
       style="font-size:26.66666603px;line-height:0.89999998;text-align:center;text-anchor:middle;fill:#fffffb;fill-opacity:1"
       id="path14588" /><path
       d="m 246.60713,149.71281 h -1.52 q -0.08,-0.85333 -0.08,-2.48 h -0.0533 q -0.66666,2.82667 -3.2,2.82667 -1.25333,0 -2.21333,-0.98667 -0.96,-0.98666 -0.96,-2.90666 0,-1.36 0.48,-2.29334 0.50667,-0.96 1.33333,-1.41333 0.82667,-0.48 1.65334,-0.66667 0.82666,-0.18666 1.76,-0.18666 h 1.04 v -0.69334 q 0,-1.68 -0.64,-2.50666 -0.61334,-0.82667 -1.73334,-0.82667 -1.46666,0 -2.48,1.41333 l -0.93333,-1.09333 q 0.58667,-0.85333 1.57333,-1.33333 0.98667,-0.50667 2,-0.50667 2.02667,0 2.93334,1.33333 0.90666,1.33334 0.90666,4 v 5.49334 q 0,1.44 0.13334,2.82666 z m -1.73334,-5.81333 v -0.90667 h -1.06666 q -3.54667,0 -3.54667,3.01334 0,1.28 0.56,1.94666 0.58667,0.66667 1.38667,0.66667 0.96,0 1.57333,-0.77333 0.64,-0.8 0.85333,-1.81334 0.24,-1.01333 0.24,-2.13333 z"
       style="font-size:26.66666603px;line-height:0.89999998;text-align:center;text-anchor:middle;fill:#fffffb;fill-opacity:1"
       id="path14590" /><path
       d="m 256.34963,137.63281 -1.04,1.14667 q -0.77334,-1.30667 -2.21334,-1.30667 -0.85333,0 -1.41333,0.64 -0.53333,0.64 -0.53333,1.62667 0,0.98667 0.48,1.49333 0.50666,0.50667 1.65333,0.93334 2.96,1.14666 2.96,3.86666 0,1.92 -1.06667,3.01334 -1.04,1.09333 -2.72,1.09333 -2.29333,0 -3.6,-1.92 l 1.06667,-1.14667 q 1.01333,1.57334 2.56,1.57334 0.93333,0 1.49333,-0.66667 0.58667,-0.69333 0.58667,-1.81333 0,-0.61334 -0.18667,-1.06667 -0.18666,-0.45333 -0.61333,-0.77333 -0.42667,-0.32 -0.74667,-0.45334 -0.29333,-0.16 -0.93333,-0.42666 -1.22667,-0.45334 -1.94667,-1.25334 -0.69333,-0.82666 -0.69333,-2.37333 0,-1.62667 1.04,-2.69333 1.06667,-1.06667 2.61333,-1.06667 2.13334,0 3.25334,1.57333 z"
       style="font-size:26.66666603px;line-height:0.89999998;text-align:center;text-anchor:middle;fill:#fffffb;fill-opacity:1"
       id="path14592" /><path
       d="m 266.82546,136.48615 -4.16,16.02666 q -0.48,1.81334 -1.25333,2.69334 -0.74667,0.90666 -2.08,0.90666 -0.72,0 -1.36,-0.21333 l 0.24,-1.57333 q 0.48,0.16 0.98666,0.16 0.72,0 1.12,-0.50667 0.4,-0.50667 0.66667,-1.49333 l 0.58667,-2.29334 -3.84,-13.70666 h 1.86666 l 2.85334,11.17333 h 0.0533 l 2.53333,-11.17333 z"
       style="font-size:26.66666603px;line-height:0.89999998;text-align:center;text-anchor:middle;fill:#fffffb;fill-opacity:1"
       id="path14594" /><path
       d="m 211.48275,185.71281 h -1.76 v -20.16 h 1.76 z"
       style="font-size:26.66666603px;line-height:0.89999998;text-align:center;text-anchor:middle;fill:#fffffb;fill-opacity:1"
       id="path14596" /><path
       d="m 223.66275,179.47281 h -7.12 q 0.0267,2.29334 0.77334,3.68 0.74666,1.38667 2.16,1.38667 1.68,0 2.45333,-2 l 1.33333,0.77333 q -1.12,2.82667 -3.84,2.82667 -2.18666,0 -3.44,-1.86667 -1.22666,-1.86666 -1.22666,-5.14666 0,-3.14667 1.25333,-5.09334 1.28,-1.97333 3.38667,-1.97333 2.21333,0 3.22666,1.78667 1.04,1.78666 1.04,4.66666 z m -1.78666,-1.46666 q 0,-2.05334 -0.64,-3.22667 -0.64,-1.2 -1.89334,-1.2 -0.93333,0 -1.6,0.82667 -0.66666,0.8 -0.93333,1.76 -0.24,0.93333 -0.24,1.84 z"
       style="font-size:26.66666603px;line-height:0.89999998;text-align:center;text-anchor:middle;fill:#fffffb;fill-opacity:1"
       id="path14598" /><path
       d="m 233.76859,185.71281 h -1.52 q -0.08,-0.85333 -0.08,-2.48 h -0.0533 q -0.66666,2.82667 -3.2,2.82667 -1.25333,0 -2.21333,-0.98667 -0.96,-0.98666 -0.96,-2.90666 0,-1.36 0.48,-2.29334 0.50667,-0.96 1.33333,-1.41333 0.82667,-0.48 1.65334,-0.66667 0.82666,-0.18666 1.76,-0.18666 h 1.04 v -0.69334 q 0,-1.68 -0.64,-2.50666 -0.61334,-0.82667 -1.73334,-0.82667 -1.46666,0 -2.48,1.41333 l -0.93333,-1.09333 q 0.58667,-0.85333 1.57333,-1.33333 0.98667,-0.50667 2,-0.50667 2.02667,0 2.93334,1.33333 0.90666,1.33334 0.90666,4 v 5.49334 q 0,1.44 0.13334,2.82666 z m -1.73334,-5.81333 v -0.90667 h -1.06666 q -3.54667,0 -3.54667,3.01334 0,1.28 0.56,1.94666 0.58667,0.66667 1.38667,0.66667 0.96,0 1.57333,-0.77333 0.64,-0.8 0.85333,-1.81334 0.24,-1.01333 0.24,-2.13333 z"
       style="font-size:26.66666603px;line-height:0.89999998;text-align:center;text-anchor:middle;fill:#fffffb;fill-opacity:1"
       id="path14600" /><path
       d="m 239.29775,175.36615 q 0.34667,-1.65334 1.09333,-2.45334 0.77334,-0.82666 1.81334,-0.82666 0.21333,0 0.32,0.0267 l -0.0533,1.81334 q -0.26666,-0.0533 -0.42666,-0.0533 -1.25334,0 -2,1.54667 -0.74667,1.54667 -0.74667,3.54667 v 6.74666 h -1.76 v -9.89333 q 0,-2.26667 -0.10667,-3.33333 h 1.70667 q 0.10667,1.33333 0.10667,2.88 z"
       style="font-size:26.66666603px;line-height:0.89999998;text-align:center;text-anchor:middle;fill:#fffffb;fill-opacity:1"
       id="path14602" /><path
       d="m 253.25609,185.71281 h -1.76 v -8.53333 q 0,-3.57333 -2.08,-3.57333 -1.28,0 -2.05334,1.30666 -0.77333,1.30667 -0.77333,3.17334 v 7.62666 h -1.76 v -9.89333 q 0,-2.26667 -0.10667,-3.33333 h 1.70667 q 0.10667,1.33333 0.10667,2.58666 h 0.0533 q 0.37333,-1.36 1.25333,-2.18666 0.88,-0.82667 2.10667,-0.82667 1.01333,0 1.70667,0.45333 0.69333,0.42667 1.01333,1.22667 0.34667,0.77333 0.45333,1.6 0.13334,0.8 0.13334,1.84 z"
       style="font-size:26.66666603px;line-height:0.89999998;text-align:center;text-anchor:middle;fill:#fffffb;fill-opacity:1"
       id="path14604" /><path
       d="m 259.27609,168.43281 q 0,0.56 -0.34667,0.93334 -0.34667,0.34666 -0.82667,0.34666 -0.50666,0 -0.85333,-0.34666 -0.32,-0.37334 -0.32,-0.93334 0,-0.53333 0.32,-0.90666 0.34667,-0.37334 0.85333,-0.37334 0.50667,0 0.82667,0.37334 0.34667,0.37333 0.34667,0.90666 z m -0.29334,17.28 h -1.76 v -13.22666 h 1.76 z"
       style="font-size:26.66666603px;line-height:0.89999998;text-align:center;text-anchor:middle;fill:#fffffb;fill-opacity:1"
       id="path14606" /><path
       d="m 271.6415,185.71281 h -1.76 v -8.53333 q 0,-3.57333 -2.08,-3.57333 -1.28,0 -2.05333,1.30666 -0.77334,1.30667 -0.77334,3.17334 v 7.62666 h -1.76 v -9.89333 q 0,-2.26667 -0.10666,-3.33333 h 1.70666 q 0.10667,1.33333 0.10667,2.58666 h 0.0533 q 0.37334,-1.36 1.25334,-2.18666 0.88,-0.82667 2.10666,-0.82667 1.01334,0 1.70667,0.45333 0.69333,0.42667 1.01333,1.22667 0.34667,0.77333 0.45334,1.6 0.13333,0.8 0.13333,1.84 z"
       style="font-size:26.66666603px;line-height:0.89999998;text-align:center;text-anchor:middle;fill:#fffffb;fill-opacity:1"
       id="path14608" /><path
       d="m 283.92817,185.52615 q 0,6.58666 -4.69334,6.58666 -1.30666,0 -2.45333,-0.61333 -1.12,-0.58667 -1.81333,-1.6 l 1.14666,-1.22667 q 1.17334,1.84 3.17334,1.84 1.65333,0 2.29333,-1.30666 0.64,-1.28 0.64,-3.68 v -2.18667 h -0.0533 q -0.74667,2.8 -3.17334,2.8 -1.94666,0 -3.06666,-1.97333 -1.12,-1.97334 -1.12,-5.12 0,-3.17334 1.06666,-5.06667 1.09334,-1.92 3.09334,-1.92 1.17333,0 2.02666,0.72 0.85334,0.72 1.14667,1.94667 h 0.08 v -2.24 h 1.70667 z m -2.45334,-2.45334 q 0.74667,-1.54666 0.74667,-3.97333 0,-2.42667 -0.74667,-3.97333 -0.72,-1.54667 -2.08,-1.54667 -1.38666,0 -2.08,1.52 -0.69333,1.52 -0.69333,4 0,2.45333 0.69333,3.97333 0.69334,1.52 2.08,1.52 1.36,0 2.08,-1.52 z"
       style="font-size:26.66666603px;line-height:0.89999998;text-align:center;text-anchor:middle;fill:#fffffb;fill-opacity:1"
       id="path14610" /></g><g
     aria-label="One-way
data flow"
     style="font-style:normal;font-variant:normal;font-weight:normal;font-stretch:normal;font-size:26.66666603px;line-height:1.20000005;font-family:'Avenir Next LT Pro';-inkscape-font-specification:'Avenir Next LT Pro';text-align:center;letter-spacing:0px;word-spacing:0px;text-anchor:middle;fill:#fffeff;fill-opacity:1;stroke:none"
     id="text8528-5"><path
       d="m 93.568132,19.174166 q 0,4.48 -1.68,7.2 -1.653333,2.72 -4.533333,2.72 -2.906667,0 -4.586666,-2.72 -1.68,-2.72 -1.68,-7.2 0,-4.479999 1.653333,-7.173333 1.653333,-2.693333 4.613333,-2.693333 2.88,0 4.533333,2.72 1.68,2.693333 1.68,7.146666 z M 90.501466,25.0675 q 1.12,-2.32 1.12,-5.893334 0,-3.573333 -1.12,-5.866666 -1.12,-2.293333 -3.146667,-2.293333 -2.106667,0 -3.226667,2.293333 -1.093333,2.266667 -1.093333,5.866666 0,3.6 1.12,5.92 1.12,2.293334 3.2,2.293334 2.053333,0 3.146667,-2.32 z"
       style="font-size:26.66666603px;line-height:1.20000005;fill:#fffeff;fill-opacity:1"
       id="path14674" /><path
       d="m 105.47105,28.640833 h -1.76 V 20.1075 q 0,-3.573333 -2.08,-3.573333 -1.28,0 -2.053334,1.306666 -0.773334,1.306667 -0.773334,3.173333 v 7.626667 H 97.044383 V 18.7475 q 0,-2.266667 -0.106667,-3.333333 h 1.706666 q 0.106667,1.333333 0.106667,2.586666 h 0.05333 q 0.373334,-1.36 1.253338,-2.186666 0.88,-0.826667 2.10666,-0.826667 1.01334,0 1.70667,0.453333 0.69333,0.426667 1.01333,1.226667 0.34667,0.773333 0.45334,1.6 0.13333,0.8 0.13333,1.84 z"
       style="font-size:26.66666603px;line-height:1.20000005;fill:#fffeff;fill-opacity:1"
       id="path14676" /><path
       d="m 117.54438,22.400833 h -7.12 q 0.0267,2.293333 0.77334,3.68 0.74666,1.386667 2.16,1.386667 1.68,0 2.45333,-2 l 1.33333,0.773333 q -1.12,2.826667 -3.84,2.826667 -2.18666,0 -3.44,-1.866667 -1.22666,-1.866667 -1.22666,-5.146667 0,-3.146666 1.25333,-5.093333 1.28,-1.973333 3.38667,-1.973333 2.21333,0 3.22666,1.786667 1.04,1.786666 1.04,4.666666 z m -1.78666,-1.466667 q 0,-2.053333 -0.64,-3.226666 -0.64,-1.2 -1.89334,-1.2 -0.93333,0 -1.6,0.826667 -0.66666,0.799999 -0.93333,1.759999 -0.24,0.933334 -0.24,1.84 z"
       style="font-size:26.66666603px;line-height:1.20000005;fill:#fffeff;fill-opacity:1"
       id="path14678" /><path
       d="m 123.6998,22.374166 h -4 v -1.493333 h 4 z"
       style="font-size:26.66666603px;line-height:1.20000005;fill:#fffeff;fill-opacity:1"
       id="path14680" /><path
       d="m 139.36938,15.414167 -2.74667,13.226666 h -2.08 l -2.24,-10.746667 h -0.0267 l -2.26667,10.746667 h -2 l -2.69333,-13.226666 h 1.78666 l 2.02667,11.199999 h 0.0267 l 2.32,-11.199999 h 1.70666 l 2.34667,11.199999 h 0.0267 l 2.02666,-11.199999 z"
       style="font-size:26.66666603px;line-height:1.20000005;fill:#fffeff;fill-opacity:1"
       id="path14682" /><path
       d="m 149.10855,28.640833 h -1.52 q -0.08,-0.853333 -0.08,-2.48 h -0.0533 q -0.66666,2.826667 -3.2,2.826667 -1.25333,0 -2.21333,-0.986667 -0.96,-0.986667 -0.96,-2.906667 0,-1.36 0.48,-2.293333 0.50667,-0.96 1.33333,-1.413333 0.82667,-0.48 1.65334,-0.666667 0.82666,-0.186667 1.76,-0.186667 h 1.04 v -0.693333 q 0,-1.68 -0.64,-2.506666 -0.61334,-0.826667 -1.73334,-0.826667 -1.46666,0 -2.48,1.413333 L 141.56188,16.8275 q 0.58667,-0.853333 1.57333,-1.333333 0.98667,-0.506667 2,-0.506667 2.02667,0 2.93334,1.333333 0.90666,1.333333 0.90666,4 v 5.493333 q 0,1.44 0.13334,2.826667 z M 147.37521,22.8275 v -0.906667 h -1.06666 q -3.54667,0 -3.54667,3.013333 0,1.28 0.56,1.946667 0.58667,0.666667 1.38667,0.666667 0.96,0 1.57333,-0.773334 0.64,-0.8 0.85333,-1.813333 0.24,-1.013333 0.24,-2.133333 z"
       style="font-size:26.66666603px;line-height:1.20000005;fill:#fffeff;fill-opacity:1"
       id="path14684" /><path
       d="m 160.26438,15.414167 -4.16,16.026666 q -0.48,1.813333 -1.25334,2.693333 -0.74666,0.906667 -2.08,0.906667 -0.72,0 -1.36,-0.213334 l 0.24,-1.573333 q 0.48,0.16 0.98667,0.16 0.72,0 1.12,-0.506667 0.4,-0.506666 0.66667,-1.493333 l 0.58666,-2.293333 -3.84,-13.706666 h 1.86667 l 2.85333,11.173333 h 0.0533 l 2.53333,-11.173333 z"
       style="font-size:26.66666603px;line-height:1.20000005;fill:#fffeff;fill-opacity:1"
       id="path14686" /><path
       d="M 88.252507,60.640833 H 86.545841 V 58.2675 h -0.05333 q -0.746666,2.8 -3.173333,2.8 -1.946666,0 -3.066666,-1.973333 -1.12,-1.973334 -1.12,-5.12 0,-3.173333 1.066666,-5.066667 1.093334,-1.92 3.093333,-1.92 1.173334,0 2,0.72 0.853334,0.72 1.146667,1.946667 h 0.05333 v -9.173333 h 1.76 z m -2.453333,-2.64 q 0.746667,-1.546666 0.746667,-3.973333 0,-2.426666 -0.746667,-3.973333 -0.72,-1.546667 -2.08,-1.546667 -1.386666,0 -2.08,1.52 -0.693333,1.52 -0.693333,4 0,2.453334 0.693333,3.973333 0.693334,1.52 2.08,1.52 1.36,0 2.08,-1.52 z"
       style="font-size:26.66666603px;line-height:1.20000005;fill:#fffeff;fill-opacity:1"
       id="path14688" /><path
       d="m 99.395007,60.640833 h -1.52 q -0.08,-0.853333 -0.08,-2.48 h -0.05333 q -0.666667,2.826667 -3.2,2.826667 -1.253333,0 -2.213333,-0.986667 -0.96,-0.986666 -0.96,-2.906666 0,-1.36 0.48,-2.293333 0.506666,-0.96 1.333333,-1.413334 0.826667,-0.48 1.653333,-0.666666 0.826667,-0.186667 1.76,-0.186667 h 1.04 v -0.693333 q 0,-1.68 -0.64,-2.506667 -0.613333,-0.826667 -1.733333,-0.826667 -1.466667,0 -2.48,1.413334 L 91.848341,48.8275 q 0.586666,-0.853333 1.573333,-1.333333 0.986667,-0.506667 2,-0.506667 2.026666,0 2.933333,1.333334 0.906667,1.333333 0.906667,4 v 5.493333 q 0,1.44 0.133333,2.826666 z M 97.661674,54.8275 v -0.906666 h -1.066667 q -3.546666,0 -3.546666,3.013333 0,1.28 0.56,1.946666 0.586666,0.666667 1.386666,0.666667 0.96,0 1.573333,-0.773333 0.64,-0.8 0.853334,-1.813334 0.24,-1.013333 0.24,-2.133333 z"
       style="font-size:26.66666603px;line-height:1.20000005;fill:#fffeff;fill-opacity:1"
       id="path14690" /><path
       d="m 107.35084,60.640833 q -0.69333,0.346667 -1.6,0.346667 -2.53333,0 -2.53333,-3.52 v -8.613333 h -1.73334 v -1.44 h 1.70667 v -3.653333 h 1.73333 v 3.653333 h 2.34667 v 1.44 h -2.34667 V 57.1475 q 0,2.293333 1.38667,2.293333 0.48,0 0.96,-0.213333 z"
       style="font-size:26.66666603px;line-height:1.20000005;fill:#fffeff;fill-opacity:1"
       id="path14692" /><path
       d="m 116.79084,60.640833 h -1.52 q -0.08,-0.853333 -0.08,-2.48 h -0.0533 q -0.66667,2.826667 -3.2,2.826667 -1.25334,0 -2.21334,-0.986667 -0.96,-0.986666 -0.96,-2.906666 0,-1.36 0.48,-2.293333 0.50667,-0.96 1.33334,-1.413334 0.82666,-0.48 1.65333,-0.666666 0.82667,-0.186667 1.76,-0.186667 h 1.04 v -0.693333 q 0,-1.68 -0.64,-2.506667 -0.61333,-0.826667 -1.73333,-0.826667 -1.46667,0 -2.48,1.413334 L 109.24417,48.8275 q 0.58667,-0.853333 1.57334,-1.333333 0.98666,-0.506667 2,-0.506667 2.02666,0 2.93333,1.333334 0.90667,1.333333 0.90667,4 v 5.493333 q 0,1.44 0.13333,2.826666 z M 115.05751,54.8275 v -0.906666 h -1.06667 q -3.54667,0 -3.54667,3.013333 0,1.28 0.56,1.946666 0.58667,0.666667 1.38667,0.666667 0.96,0 1.57333,-0.773333 0.64,-0.8 0.85334,-1.813334 0.24,-1.013333 0.24,-2.133333 z"
       style="font-size:26.66666603px;line-height:1.20000005;fill:#fffeff;fill-opacity:1"
       id="path14694" /><path
       d="m 130.01459,40.214167 -0.13333,1.466667 q -0.4,-0.133333 -0.77334,-0.133333 -1.84,0 -1.84,3.066666 v 2.8 h 2.24 v 1.44 h -2.24 v 11.786666 h -1.73333 V 48.854167 h -1.78667 v -1.44 h 1.78667 v -2.8 q 0,-2.106666 0.82667,-3.333333 0.85333,-1.226667 2.56,-1.226667 0.61333,0 1.09333,0.16 z m 3.46667,20.426666 h -1.78667 V 40.480834 h 1.78667 z"
       style="font-size:26.66666603px;line-height:1.20000005;fill:#fffeff;fill-opacity:1"
       id="path14696" /><path
       d="m 146.01542,54.054167 q 0,3.146666 -1.25333,5.093333 -1.22667,1.92 -3.36,1.92 -2.10667,0 -3.36,-1.92 -1.25333,-1.946667 -1.25333,-5.093333 0,-3.2 1.22666,-5.12 1.22667,-1.946667 3.38667,-1.946667 2.13333,0 3.36,1.946667 1.25333,1.92 1.25333,5.12 z m -2.53333,3.946666 q 0.72,-1.519999 0.72,-3.973333 0,-2.453333 -0.72,-3.973333 -0.72,-1.546667 -2.08,-1.546667 -1.38667,0 -2.10667,1.546667 -0.69333,1.52 -0.69333,3.973333 0,2.453334 0.69333,3.973333 0.72,1.493334 2.10667,1.493334 1.38667,0 2.08,-1.493334 z"
       style="font-size:26.66666603px;line-height:1.20000005;fill:#fffeff;fill-opacity:1"
       id="path14698" /><path
       d="m 161.94751,47.414167 -2.74667,13.226666 h -2.08 l -2.24,-10.746666 h -0.0267 l -2.26666,10.746666 h -2 l -2.69334,-13.226666 h 1.78667 l 2.02667,11.2 h 0.0267 l 2.32,-11.2 h 1.70667 l 2.34667,11.2 h 0.0267 l 2.02667,-11.2 z"
       style="font-size:26.66666603px;line-height:1.20000005;fill:#fffeff;fill-opacity:1"
       id="path14700" /></g><g
     aria-label="Performances"
     transform="rotate(45)"
     style="font-style:normal;font-variant:normal;font-weight:normal;font-stretch:normal;font-size:40px;line-height:0.89999998;font-family:'Avenir Next LT Pro';-inkscape-font-specification:'Avenir Next LT Pro';text-align:center;letter-spacing:0px;word-spacing:0px;text-anchor:middle;fill:#fffffb;fill-opacity:1;stroke:none"
     id="text8538-3-7-9"><path
       d="m 178.00412,-148.5192 q 0,2.50667 -1.36,3.92 -1.33333,1.41333 -3.28,1.41333 h -2.77333 v 8.42667 h -1.84 v -18.88 h 4.45333 q 1.94667,0 3.36,1.22667 1.44,1.2 1.44,3.89333 z m -1.84,0.0267 q 0,-1.78667 -0.85333,-2.66667 -0.85334,-0.88 -2.21334,-0.88 h -2.50666 v 7.28 h 2.53333 q 1.33333,0 2.18667,-0.96 0.85333,-0.96 0.85333,-2.77333 z"
       style="font-size:26.66666603px;line-height:0.89999998;text-align:center;text-anchor:middle;fill:#fffffb;fill-opacity:1"
       id="path14649" /><path
       d="m 188.05287,-140.9992 h -7.12 q 0.0267,2.29333 0.77333,3.68 0.74667,1.38667 2.16,1.38667 1.68,0 2.45334,-2 l 1.33333,0.77333 q -1.12,2.82667 -3.84,2.82667 -2.18667,0 -3.44,-1.86667 -1.22667,-1.86667 -1.22667,-5.14667 0,-3.14666 1.25334,-5.09333 1.28,-1.97333 3.38666,-1.97333 2.21334,0 3.22667,1.78666 1.04,1.78667 1.04,4.66667 z m -1.78667,-1.46667 q 0,-2.05333 -0.64,-3.22666 -0.64,-1.2 -1.89333,-1.2 -0.93333,0 -1.6,0.82666 -0.66667,0.8 -0.93333,1.76 -0.24,0.93334 -0.24,1.84 z"
       style="font-size:26.66666603px;line-height:0.89999998;text-align:center;text-anchor:middle;fill:#fffffb;fill-opacity:1"
       id="path14651" /><path
       d="m 193.11495,-145.10587 q 0.34667,-1.65333 1.09334,-2.45333 0.77333,-0.82667 1.81333,-0.82667 0.21333,0 0.32,0.0267 l -0.0533,1.81333 q -0.26667,-0.0533 -0.42667,-0.0533 -1.25333,0 -2,1.54667 -0.74667,1.54666 -0.74667,3.54666 v 6.74667 h -1.76 v -9.89333 q 0,-2.26667 -0.10666,-3.33334 h 1.70666 q 0.10667,1.33334 0.10667,2.88 z"
       style="font-size:26.66666603px;line-height:0.89999998;text-align:center;text-anchor:middle;fill:#fffffb;fill-opacity:1"
       id="path14653" /><path
       d="m 203.15328,-155.18587 -0.13333,1.46667 q -0.4,-0.13333 -0.77333,-0.13333 -1.84,0 -1.84,3.06666 v 2.8 h 2.24 v 1.44 h -2.24 v 11.78667 h -1.73334 v -11.78667 h -1.78666 v -1.44 h 1.78666 v -2.8 q 0,-2.10666 0.82667,-3.33333 0.85333,-1.22667 2.56,-1.22667 0.61333,0 1.09333,0.16 z"
       style="font-size:26.66666603px;line-height:0.89999998;text-align:center;text-anchor:middle;fill:#fffffb;fill-opacity:1"
       id="path14655" /><path
       d="m 213.32079,-141.34587 q 0,3.14667 -1.25334,5.09334 -1.22666,1.92 -3.36,1.92 -2.10666,0 -3.36,-1.92 -1.25333,-1.94667 -1.25333,-5.09334 0,-3.2 1.22667,-5.12 1.22666,-1.94666 3.38666,-1.94666 2.13334,0 3.36,1.94666 1.25334,1.92 1.25334,5.12 z m -2.53334,3.94667 q 0.72,-1.52 0.72,-3.97333 0,-2.45334 -0.72,-3.97334 -0.72,-1.54666 -2.08,-1.54666 -1.38666,0 -2.10666,1.54666 -0.69334,1.52 -0.69334,3.97334 0,2.45333 0.69334,3.97333 0.72,1.49333 2.10666,1.49333 1.38667,0 2.08,-1.49333 z"
       style="font-size:26.66666603px;line-height:0.89999998;text-align:center;text-anchor:middle;fill:#fffffb;fill-opacity:1"
       id="path14657" /><path
       d="m 218.47954,-145.10587 q 0.34666,-1.65333 1.09333,-2.45333 0.77333,-0.82667 1.81333,-0.82667 0.21334,0 0.32,0.0267 l -0.0533,1.81333 q -0.26667,-0.0533 -0.42667,-0.0533 -1.25333,0 -2,1.54667 -0.74666,1.54666 -0.74666,3.54666 v 6.74667 h -1.76 v -9.89333 q 0,-2.26667 -0.10667,-3.33334 h 1.70667 q 0.10666,1.33334 0.10666,2.88 z"
       style="font-size:26.66666603px;line-height:0.89999998;text-align:center;text-anchor:middle;fill:#fffffb;fill-opacity:1"
       id="path14659" /><path
       d="m 225.7712,-145.3992 q 0.32,-1.36 1.17333,-2.18667 0.85334,-0.82666 2.13334,-0.82666 2.48,0 2.98666,3.04 h 0.0533 q 0.34666,-1.28 1.25333,-2.16 0.90667,-0.88 2.24,-0.88 3.30667,0 3.30667,5.12 v 8.53333 h -1.78667 v -8.53333 q 0,-3.57334 -2.08,-3.57334 -1.25333,0 -2,1.30667 -0.74667,1.30667 -0.74667,3.17333 v 7.62667 h -1.76 v -8.53333 q 0,-0.72 -0.08,-1.25334 -0.0533,-0.56 -0.26666,-1.12 -0.18667,-0.58666 -0.61334,-0.88 -0.42666,-0.32 -1.06666,-0.32 -1.28,0 -2.02667,1.30667 -0.74667,1.30667 -0.74667,3.17333 v 7.62667 h -1.73333 v -9.89333 q 0,-2.26667 -0.10667,-3.33334 h 1.70667 q 0.10667,1.33334 0.10667,2.58667 z"
       style="font-size:26.66666603px;line-height:0.89999998;text-align:center;text-anchor:middle;fill:#fffffb;fill-opacity:1"
       id="path14661" /><path
       d="m 249.98161,-134.7592 h -1.52 q -0.08,-0.85333 -0.08,-2.48 h -0.0533 q -0.66667,2.82667 -3.2,2.82667 -1.25333,0 -2.21333,-0.98667 -0.96,-0.98667 -0.96,-2.90667 0,-1.36 0.48,-2.29333 0.50666,-0.96 1.33333,-1.41333 0.82667,-0.48 1.65333,-0.66667 0.82667,-0.18667 1.76,-0.18667 h 1.04 v -0.69333 q 0,-1.68 -0.64,-2.50667 -0.61333,-0.82666 -1.73333,-0.82666 -1.46667,0 -2.48,1.41333 l -0.93333,-1.09333 q 0.58666,-0.85334 1.57333,-1.33334 0.98667,-0.50666 2,-0.50666 2.02667,0 2.93333,1.33333 0.90667,1.33333 0.90667,4 v 5.49333 q 0,1.44 0.13333,2.82667 z m -1.73333,-5.81333 v -0.90667 h -1.06667 q -3.54666,0 -3.54666,3.01333 0,1.28 0.56,1.94667 0.58666,0.66667 1.38666,0.66667 0.96,0 1.57334,-0.77334 0.64,-0.8 0.85333,-1.81333 0.24,-1.01333 0.24,-2.13333 z"
       style="font-size:26.66666603px;line-height:0.89999998;text-align:center;text-anchor:middle;fill:#fffffb;fill-opacity:1"
       id="path14663" /><path
       d="m 262.17745,-134.7592 h -1.76 v -8.53333 q 0,-3.57334 -2.08,-3.57334 -1.28,0 -2.05333,1.30667 -0.77333,1.30667 -0.77333,3.17333 v 7.62667 h -1.76 v -9.89333 q 0,-2.26667 -0.10667,-3.33334 h 1.70667 q 0.10666,1.33334 0.10666,2.58667 h 0.0533 q 0.37333,-1.36 1.25333,-2.18667 0.88,-0.82666 2.10667,-0.82666 1.01333,0 1.70666,0.45333 0.69334,0.42667 1.01334,1.22667 0.34666,0.77333 0.45333,1.6 0.13333,0.8 0.13333,1.84 z"
       style="font-size:26.66666603px;line-height:0.89999998;text-align:center;text-anchor:middle;fill:#fffffb;fill-opacity:1"
       id="path14665" /><path
       d="m 272.83745,-135.69253 q -1.06666,1.36 -2.93333,1.36 -2.21333,0 -3.38667,-1.92 -1.17333,-1.92 -1.17333,-5.12 0,-3.22667 1.2,-5.12 1.2,-1.92 3.38667,-1.92 1.84,0 2.88,1.25333 l -0.93334,1.28 q -0.69333,-0.98667 -1.92,-0.98667 -1.36,0 -2.08,1.52 -0.72,1.49334 -0.72,3.97334 0,2.48 0.72,3.94666 0.72,1.44 2.16,1.44 1.28,0 2,-1.06666 z"
       style="font-size:26.66666603px;line-height:0.89999998;text-align:center;text-anchor:middle;fill:#fffffb;fill-opacity:1"
       id="path14667" /><path
       d="m 283.20911,-140.9992 h -7.12 q 0.0267,2.29333 0.77334,3.68 0.74666,1.38667 2.16,1.38667 1.68,0 2.45333,-2 l 1.33333,0.77333 q -1.12,2.82667 -3.84,2.82667 -2.18666,0 -3.44,-1.86667 -1.22666,-1.86667 -1.22666,-5.14667 0,-3.14666 1.25333,-5.09333 1.28,-1.97333 3.38667,-1.97333 2.21333,0 3.22666,1.78666 1.04,1.78667 1.04,4.66667 z m -1.78666,-1.46667 q 0,-2.05333 -0.64,-3.22666 -0.64,-1.2 -1.89334,-1.2 -0.93333,0 -1.6,0.82666 -0.66666,0.8 -0.93333,1.76 -0.24,0.93334 -0.24,1.84 z"
       style="font-size:26.66666603px;line-height:0.89999998;text-align:center;text-anchor:middle;fill:#fffffb;fill-opacity:1"
       id="path14669" /><path
       d="m 292.48453,-146.8392 -1.04,1.14667 q -0.77333,-1.30667 -2.21333,-1.30667 -0.85333,0 -1.41333,0.64 -0.53334,0.64 -0.53334,1.62667 0,0.98666 0.48,1.49333 0.50667,0.50667 1.65334,0.93333 2.96,1.14667 2.96,3.86667 0,1.92 -1.06667,3.01333 -1.04,1.09334 -2.72,1.09334 -2.29333,0 -3.6,-1.92 l 1.06667,-1.14667 q 1.01333,1.57333 2.56,1.57333 0.93333,0 1.49333,-0.66666 0.58667,-0.69334 0.58667,-1.81334 0,-0.61333 -0.18667,-1.06666 -0.18667,-0.45334 -0.61333,-0.77334 -0.42667,-0.32 -0.74667,-0.45333 -0.29333,-0.16 -0.93333,-0.42667 -1.22667,-0.45333 -1.94667,-1.25333 -0.69333,-0.82667 -0.69333,-2.37333 0,-1.62667 1.04,-2.69334 1.06666,-1.06666 2.61333,-1.06666 2.13333,0 3.25333,1.57333 z"
       style="font-size:26.66666603px;line-height:0.89999998;text-align:center;text-anchor:middle;fill:#fffffb;fill-opacity:1"
       id="path14671" /></g></svg>